<?xml version="1.0" encoding="UTF-8" standalone="no"?>
<!-- Created with Inkscape (http://www.inkscape.org/) -->

<svg
   width="780"
   height="200"
   viewBox="0 0 206.375 52.916664"
   version="1.1"
   id="svg5"
   inkscape:version="1.2.1 (9c6d41e410, 2022-07-14)"
   sodipodi:docname="logo2.svg"
   xmlns:inkscape="http://www.inkscape.org/namespaces/inkscape"
   xmlns:sodipodi="http://sodipodi.sourceforge.net/DTD/sodipodi-0.dtd"
   xmlns="http://www.w3.org/2000/svg"
   xmlns:svg="http://www.w3.org/2000/svg">
  <sodipodi:namedview
     id="namedview7"
     pagecolor="#ffffff"
     bordercolor="#000000"
     borderopacity="0.25"
     inkscape:showpageshadow="2"
     inkscape:pageopacity="0.0"
     inkscape:pagecheckerboard="0"
     inkscape:deskcolor="#d1d1d1"
     inkscape:document-units="mm"
     showgrid="false"
     inkscape:zoom="1.4142136"
     inkscape:cx="387.14095"
     inkscape:cy="-8.4852811"
     inkscape:window-width="1920"
     inkscape:window-height="1027"
     inkscape:window-x="-8"
     inkscape:window-y="-8"
     inkscape:window-maximized="1"
     inkscape:current-layer="layer1" />
  <defs
     id="defs2" />
  <g
     inkscape:label="Ebene 1"
     inkscape:groupmode="layer"
     id="layer1">
    <rect
       style="fill:#ffffff;stroke:none;stroke-width:2.46855;fill-opacity:0.89999998"
       id="rect1623"
       width="206.375"
       height="52.916668"
       x="-5.0862632e-06"
       y="-1.2715658e-06"
       rx="2.5796874"
       ry="2.6458333" />
    <path
       id="rect1069"
       style="fill:#1a1a1a;stroke-width:0.317;stroke-dasharray:none"
       d="m 10.466545,-8.2651286 c -1.1079993,0 -1.9998783,-0.891879 -1.9998783,-1.9998784 v -6.006351 H 7.5065186 c -0.5496575,0 -0.9921875,-0.526337 -0.9921875,-1.179773 v -1.103809 c 0,-0.653436 0.44253,-1.179256 0.9921875,-1.179256 H 8.4666667 V -33.182471 H 7.5065186 c -0.5496575,0 -0.9921875,-0.52582 -0.9921875,-1.179256 v -1.103808 c 0,-0.653436 0.44253,-1.179773 0.9921875,-1.179773 h 0.9601481 v -5.619812 c 0,-1.107999 0.891879,-1.999878 1.9998783,-1.999878 h 32.000114 c 1.107998,0 1.999877,0.891879 1.999877,1.999878 v 32.000113 c 0,1.1079994 -0.891879,1.9998784 -1.999877,1.9998784 z"
       transform="scale(1,-1)" />
    <path
       style="color:#000000;fill:#ffffff;-inkscape-stroke:none"
       d="m 26.466797,13.208984 c -7.30296,0 -13.25,5.947041 -13.25,13.25 0,7.30296 5.94704,13.25 13.25,13.25 7.30296,0 13.25,-5.94704 13.25,-13.25 0,-7.302959 -5.94704,-13.25 -13.25,-13.25 z m 0,2.5 c 5.951861,0 10.75,4.798139 10.75,10.75 0,5.951861 -4.798139,10.75 -10.75,10.75 -5.951861,0 -10.75,-4.798139 -10.75,-10.75 0,-5.951861 4.798139,-10.75 10.75,-10.75 z"
       id="path1639" />
    <g
       id="rect3535"
       transform="rotate(-7,26.468764,27.306072)"
       style="fill:#1a1a1a;stroke:#1a1a1a">
      <path
         style="color:#000000;stroke:none;stroke-width:0.207353;-inkscape-stroke:none"
         d="m 26.45883,28.603676 h 0.01568 c 0.549658,0 0.992162,0.526052 0.992162,1.179488 v 11.641024 c 0,0.653436 -0.442504,1.179488 -0.992162,1.179488 h -0.01568 c -0.549658,0 -0.992163,-0.526052 -0.992163,-1.179488 V 29.783164 c 0,-0.653436 0.442505,-1.179488 0.992163,-1.179488 z"
         id="path1522" />
      <path
         style="color:#000000;stroke:none;-inkscape-stroke:none"
         d="m 26.458984,28.5 c -0.615806,0 -1.095703,0.582961 -1.095703,1.283203 v 11.640625 c 0,0.700242 0.479897,1.283203 1.095703,1.283203 h 0.01563 c 0.615807,0 1.095704,-0.582961 1.095703,-1.283203 V 29.783203 C 27.570312,29.082961 27.090416,28.5 26.474609,28.5 Z m 0,0.207031 h 0.01563 c 0.483509,0 0.888672,0.469543 0.888672,1.076172 v 11.640625 c 0,0.60663 -0.405163,1.076172 -0.888672,1.076172 h -0.01563 c -0.483508,0 -0.888671,-0.469542 -0.888672,-1.076172 V 29.783203 c 0,-0.606629 0.405164,-1.076172 0.888672,-1.076172 z"
         id="path1519" />
    </g>
    <g
       id="rect3537"
       transform="rotate(65,-4.2566743,-0.74230069)"
       style="fill:#1a1a1a;stroke:#1a1a1a">
      <path
         style="color:#000000;stroke:none;stroke-width:0.207353;-inkscape-stroke:none"
         d="m 33.334184,-14.849877 h 0.01568 c 0.549658,0 0.992163,0.526051 0.992163,1.179488 v 11.6410236 c 0,0.6534364 -0.442505,1.17948804 -0.992163,1.17948804 h -0.01568 c -0.549658,0 -0.992162,-0.52605164 -0.992162,-1.17948804 V -13.670389 c 0,-0.653437 0.442504,-1.179488 0.992162,-1.179488 z"
         id="path1516" />
      <path
         style="color:#000000;stroke:none;-inkscape-stroke:none"
         d="m 33.333984,-14.953125 c -0.615806,0 -1.095703,0.582961 -1.095703,1.283203 v 11.6406251 c 0,0.7002419 0.479897,1.28320315 1.095703,1.28320315 h 0.01563 c 0.615807,0 1.095703,-0.58296125 1.095703,-1.28320315 V -13.669922 c 0,-0.700242 -0.479896,-1.283203 -1.095703,-1.283203 z m 0,0.207031 h 0.01563 c 0.483509,0 0.888672,0.469543 0.888672,1.076172 v 11.6406251 c 0,0.6066296 -0.405163,1.0761719 -0.888672,1.0761719 h -0.01563 c -0.483508,0 -0.888672,-0.4695423 -0.888672,-1.0761719 V -13.669922 c 0,-0.606629 0.405164,-1.076172 0.888672,-1.076172 z"
         id="path1513" />
    </g>
    <g
       id="rect3539"
       transform="rotate(137,-2.2406514,1.0980689)"
       style="fill:#1a1a1a;stroke:#1a1a1a">
      <path
         style="color:#000000;fill:#1a1a1a;stroke:none;stroke-width:0.207353;-inkscape-stroke:none"
         d="m -5.8680003,-34.816612 h 0.015675 c 0.549658,0 0.9921625,0.526051 0.9921625,1.179488 V -21.9961 c 0,0.653436 -0.4425045,1.179488 -0.9921625,1.179488 h -0.015675 c -0.549658,0 -0.9921624,-0.526052 -0.9921624,-1.179488 v -11.641024 c 0,-0.653437 0.4425044,-1.179488 0.9921624,-1.179488 z"
         id="path1645" />
      <path
         style="color:#000000;fill:#1a1a1a;stroke:none;-inkscape-stroke:none"
         d="m -5.8671875,-34.919922 c -0.6158066,0 -1.0957031,0.582961 -1.0957031,1.283203 v 11.640625 c 0,0.700242 0.4798965,1.283203 1.0957031,1.283203 h 0.015625 c 0.6158066,0 1.0957031,-0.582961 1.0957031,-1.283203 v -11.640625 c 0,-0.700242 -0.4798965,-1.283203 -1.0957031,-1.283203 z m 0,0.207031 h 0.015625 c 0.4835083,0 0.8886719,0.469543 0.8886719,1.076172 v 11.640625 c 0,0.60663 -0.4051636,1.076172 -0.8886719,1.076172 h -0.015625 c -0.4835083,0 -0.8886719,-0.469542 -0.8886719,-1.076172 v -11.640625 c 0,-0.606629 0.4051636,-1.076172 0.8886719,-1.076172 z"
         id="path1642" />
    </g>
    <g
       id="rect3541"
       transform="rotate(-151,-1.1218052,2.1194316)"
       style="fill:#1a1a1a;stroke:#1a1a1a">
      <path
         style="color:#000000;stroke:none;stroke-width:0.207353;-inkscape-stroke:none"
         d="m -36.971636,-3.7031801 h 0.01567 c 0.549658,0 0.992162,0.5260517 0.992162,1.1794881 V 9.1173319 c 0,0.6534363 -0.442504,1.1794881 -0.992162,1.1794881 h -0.01567 c -0.549658,0 -0.992163,-0.5260518 -0.992163,-1.1794881 V -2.523692 c 0,-0.6534364 0.442505,-1.1794881 0.992163,-1.1794881 z"
         id="path1504" />
      <path
         style="color:#000000;stroke:none;-inkscape-stroke:none"
         d="m -36.970703,-3.8066406 c -0.615807,0 -1.097656,0.5829612 -1.097656,1.2832031 v 11.640625 c 0,0.7002419 0.481849,1.2832035 1.097656,1.2832035 h 0.01563 c 0.615807,0 1.095703,-0.5829616 1.095703,-1.2832035 v -11.640625 c 0,-0.7002419 -0.479896,-1.2832031 -1.095703,-1.2832031 z m 0,0.2070312 h 0.01563 c 0.483508,0 0.886719,0.4695423 0.886719,1.0761719 v 11.640625 c 0,0.6066296 -0.403211,1.0761715 -0.886719,1.0761715 h -0.01563 c -0.483508,0 -0.888672,-0.4695419 -0.888672,-1.0761715 v -11.640625 c 0,-0.6066296 0.405164,-1.0761719 0.888672,-1.0761719 z"
         id="path1501" />
    </g>
    <g
       id="rect3543"
       transform="rotate(-79,0.51477683,3.6134204)"
       style="fill:#1a1a1a;stroke:#1a1a1a">
      <path
         style="color:#000000;stroke:none;stroke-width:0.207353;-inkscape-stroke:none"
         d="m -16.992556,35.492714 h 0.01568 c 0.549658,0 0.992163,0.526052 0.992163,1.179488 v 11.641024 c 0,0.653436 -0.442505,1.179488 -0.992163,1.179488 h -0.01568 c -0.549658,0 -0.992162,-0.526052 -0.992162,-1.179488 V 36.672202 c 0,-0.653436 0.442504,-1.179488 0.992162,-1.179488 z"
         id="path1498" />
      <path
         style="color:#000000;stroke:none;-inkscape-stroke:none"
         d="m -16.992187,35.388672 c -0.615807,0 -1.095704,0.582961 -1.095704,1.283203 V 48.3125 c 0,0.700242 0.479897,1.283203 1.095704,1.283203 h 0.01563 c 0.615806,0 1.095703,-0.582961 1.095703,-1.283203 V 36.671875 c 0,-0.700242 -0.479897,-1.283203 -1.095703,-1.283203 z m 0,0.207031 h 0.01563 c 0.483508,0 0.888671,0.469542 0.888671,1.076172 V 48.3125 c 0,0.60663 -0.405163,1.076172 -0.888671,1.076172 h -0.01563 c -0.483509,0 -0.888672,-0.469542 -0.888672,-1.076172 V 36.671875 c 0,-0.60663 0.405163,-1.076172 0.888672,-1.076172 z"
         id="path1495" />
    </g>
    <g
       id="rect3502">
      <path
         style="color:#000000;fill:#ffffff;stroke-width:0.207353;-inkscape-stroke:none"
         d="m 35.02887,12.933061 c -0.353007,-0.0013 -0.727216,0.188964 -0.979269,0.535884 l -6.334497,8.719365 c -0.396575,-0.117267 -0.815815,-0.180351 -1.248502,-0.180351 -0.615282,0 -1.202545,0.127422 -1.737362,0.357084 l -6.250265,-8.602059 c -0.384079,-0.52864 -1.05135,-0.694117 -1.496032,-0.371037 l -0.417029,0.302824 c -0.444682,0.323081 -0.493634,1.008734 -0.109554,1.537374 l 6.338631,8.724532 c -0.489915,0.714856 -0.777213,1.577377 -0.777213,2.502173 0,0.130691 0.0058,0.260139 0.01705,0.38809 l -10.110494,3.285071 c -0.621455,0.201923 -0.985308,0.785175 -0.815454,1.30793 l 0.15968,0.49041 c 0.169853,0.522755 0.806882,0.781215 1.428336,0.579293 L 22.953638,29.17703 c 0.619325,0.796956 1.501979,1.380912 2.513025,1.616439 v 10.630876 c 0,0.653436 0.44253,1.179256 0.992187,1.179256 h 0.515731 c 0.549657,0 0.992187,-0.52582 0.992187,-1.179256 V 30.645158 c 0.96733,-0.350296 1.78239,-1.028317 2.308903,-1.897559 l 10.115145,3.286621 c 0.621455,0.201923 1.258483,-0.05654 1.428337,-0.579292 l 0.15968,-0.49041 c 0.169854,-0.522755 -0.194,-1.106008 -0.815454,-1.30793 l -10.249504,-3.33003 c -0.03152,-1.059226 -0.439819,-2.030389 -1.094507,-2.782259 l 6.252849,-8.605676 c 0.38408,-0.528641 0.335645,-1.214293 -0.109037,-1.537374 l -0.417546,-0.30334 C 35.392774,12.98685 35.213778,12.933752 35.02887,12.933061 Z m -8.562268,11.575004 c 1.091758,0 1.949235,0.859026 1.949235,1.950785 0,1.091759 -0.857477,1.949235 -1.949235,1.949235 -1.091759,0 -1.949235,-0.857476 -1.949235,-1.949235 0,-1.091759 0.857476,-1.950784 1.949235,-1.950785 z"
         id="path1437" />
      <path
         style="color:#000000;fill:#ffffff;-inkscape-stroke:none"
         d="m 35.029297,12.830078 c -0.390537,-0.0015 -0.794315,0.206313 -1.064453,0.578125 l -6.298828,8.669922 c -0.383728,-0.106282 -0.783554,-0.173828 -1.199219,-0.173828 -0.599191,0 -1.167557,0.133643 -1.69336,0.347656 L 18.5625,13.701172 C 18.150905,13.13466 17.420076,12.94663 16.921875,13.308594 l -0.416016,0.302734 c -0.498185,0.361953 -0.544411,1.115124 -0.132812,1.681641 l 6.310547,8.6875 c -0.472236,0.717245 -0.769532,1.562555 -0.769532,2.478515 0,0.105426 0.0065,0.208802 0.01367,0.3125 l -10.035156,3.261719 c -0.665946,0.216379 -1.073116,0.85376 -0.882812,1.439453 l 0.160156,0.490235 c 0.190291,0.585658 0.892609,0.860922 1.558594,0.644531 l 10.201171,-3.314453 c 0.612711,0.761168 1.460892,1.321483 2.433594,1.568359 v 10.5625 c 0,0.700244 0.479927,1.283203 1.095703,1.283203 h 0.515625 c 0.615777,0 1.095704,-0.582959 1.095703,-1.283203 V 30.703125 c 0.929498,-0.355314 1.712782,-1.00473 2.238282,-1.835938 l 10.050781,3.265625 c 0.665986,0.216392 1.368301,-0.06083 1.558594,-0.646484 l 0.160156,-0.490234 c 0.190304,-0.585694 -0.216867,-1.221122 -0.882813,-1.4375 l -10.193359,-3.3125 c -0.04893,-1.022026 -0.437799,-1.957228 -1.058594,-2.697266 L 36.15625,15 c 0.411573,-0.566481 0.365403,-1.321618 -0.132813,-1.683594 l -0.416015,-0.302734 c -0.171284,-0.124445 -0.37362,-0.18283 -0.578125,-0.183594 z m 0,0.207031 c 0.16531,6.18e-4 0.320642,0.04686 0.455078,0.144532 l 0.417969,0.302734 c 0.391147,0.284186 0.442524,0.901779 0.08594,1.392578 l -6.300781,8.673828 0.05273,0.0625 c 0.639672,0.734625 1.039533,1.682297 1.070313,2.716797 l 0.002,0.07227 10.318359,3.353515 c 0.576962,0.187466 0.899404,0.715966 0.75,1.175782 l -0.160156,0.492187 c -0.149415,0.459851 -0.719952,0.699173 -1.296875,0.511719 l -10.193359,-3.3125 -0.04297,0.07031 c -0.514325,0.849121 -1.31127,1.511455 -2.255859,1.853516 l -0.06836,0.02539 v 10.851562 c 0,0.606627 -0.405135,1.076172 -0.888672,1.076172 h -0.515625 c -0.483536,0 -0.888671,-0.469545 -0.888672,-1.076172 V 30.710937 l -0.08008,-0.01758 c -0.987152,-0.22996 -1.849983,-0.801433 -2.455078,-1.580078 l -0.04492,-0.05664 -10.326171,3.353515 c -0.576923,0.187453 -1.147461,-0.05187 -1.296875,-0.511719 l -0.160157,-0.490234 c -0.149403,-0.459815 0.173037,-0.990268 0.75,-1.177734 l 10.1875,-3.310547 -0.0059,-0.08203 c -0.01098,-0.124978 -0.01758,-0.251287 -0.01758,-0.378907 0,-0.903323 0.28115,-1.744991 0.759765,-2.443359 l 0.04102,-0.06055 -6.380859,-8.783203 c -0.356561,-0.490763 -0.305241,-1.10837 0.08594,-1.392578 l 0.416016,-0.302734 c 0.391162,-0.284196 0.995,-0.143111 1.351562,0.347656 l 6.298828,8.667968 0.07617,-0.03125 c 0.522308,-0.22429 1.096298,-0.349609 1.697266,-0.349609 0.422609,0 0.831533,0.06128 1.21875,0.175781 l 0.07031,0.02148 6.376953,-8.779297 c 0.233968,-0.322027 0.581008,-0.493366 0.896485,-0.492188 z m -8.5625,11.367188 c -1.146142,1e-6 -2.052735,0.908644 -2.052735,2.054687 10e-7,1.146044 0.906691,2.052735 2.052735,2.052735 1.146042,0 2.052734,-0.906691 2.052734,-2.052735 0,-1.146043 -0.906594,-2.054687 -2.052734,-2.054687 z m 0,0.207031 c 1.037373,0 1.845703,0.810184 1.845703,1.847656 0,1.037473 -0.808232,1.845704 -1.845703,1.845703 -1.037473,0 -1.845703,-0.80823 -1.845703,-1.845703 0,-1.037472 0.808328,-1.847655 1.845703,-1.847656 z"
         id="path1434" />
    </g>
    <text
       xml:space="preserve"
       style="font-size:16.9333px;fill:#1a1a1a;stroke:#1a1a1a;stroke-width:0.317;stroke-dasharray:none;stroke-opacity:1"
       x="45.126274"
       y="22.315187"
       id="text3700"><tspan
         sodipodi:role="line"
         style="font-style:normal;font-variant:normal;font-weight:normal;font-stretch:normal;font-size:16.9333px;font-family:'Comic Sans MS';-inkscape-font-specification:'Comic Sans MS';stroke-width:0.317"
         x="45.126274"
         y="22.315187"
         id="tspan3702" /></text>
    <g
       aria-label="microVault"
       id="text251"
       style="font-size:28.2222px;font-family:Mabook;-inkscape-font-specification:Mabook;fill:#1a1a1a;stroke:#1a1a1a;stroke-width:0.317">
      <g
         id="path1119"
         style="fill:#1a1a1a">
        <path
           style="color:#000000;-inkscape-font-specification:Mabook;fill:#1a1a1a;stroke:none;-inkscape-stroke:none"
           d="m 69.057496,29.952864 q -0.564444,0.620888 -1.326443,1.015999 -0.733777,0.366888 -1.552221,0.395111 -0.846666,0.02822 -1.552221,-0.282222 -0.677333,-0.310445 -1.241777,-0.818444 -0.564444,-0.508 -1.044221,-1.128888 -0.479778,-0.649111 -0.903111,-1.269999 -0.479777,-0.677333 -0.931333,-1.354666 -0.423333,-0.705555 -0.846666,-1.41111 0,1.185332 0.02822,2.314221 0.02822,1.128888 0.112888,2.285998 0.08467,1.354665 0.225778,2.652887 0.169333,1.298221 0.310444,2.681109 0.141111,0.874888 -0.197555,1.552221 -0.338667,0.677332 -1.213555,0.959554 -0.366888,0.112889 -0.790221,0.05645 -0.395111,-0.05645 -0.762,-0.254 -0.366888,-0.197555 -0.64911,-0.508 -0.254,-0.310444 -0.310445,-0.733777 -0.253999,-1.806221 -0.479777,-3.612441 -0.197555,-1.806221 -0.282222,-3.668886 -0.08467,-1.693332 -0.112889,-3.386665 -0.02822,-1.721554 0.112889,-3.414886 0.05644,-0.592666 0.225778,-1.128888 0.197555,-0.564444 0.507999,-0.987777 0.338667,-0.423333 0.818444,-0.705555 0.508,-0.282222 1.15711,-0.310444 0.987777,-0.05644 1.721554,0.479777 0.762,0.508 1.354666,1.241777 0.903111,1.15711 1.66511,2.370665 0.761999,1.213555 1.580443,2.455331 0.366889,0.620889 0.649111,0.959555 0.282222,0.310444 0.507999,0.395111 0.225778,0.08467 0.423333,0 0.197556,-0.112889 0.423333,-0.338666 0.733778,-0.818444 1.382888,-1.693332 0.677333,-0.903111 1.41111,-1.777999 0.366889,-0.451555 0.874888,-1.128888 0.508,-0.677333 1.100666,-1.354666 0.592666,-0.677332 1.213555,-1.241776 0.64911,-0.564444 1.213554,-0.790222 0.592667,-0.254 1.157111,-0.225778 0.592666,0.02822 1.072443,0.310445 0.508,0.253999 0.874889,0.705555 0.366888,0.451555 0.536221,1.044221 0.225778,0.677333 0.197556,1.41111 -0.02822,0.733777 -0.08467,1.439332 -0.197555,3.160887 -0.366888,6.293551 -0.169334,3.104442 -0.338667,6.265328 -0.05644,0.846666 -0.620888,1.41111 -0.536222,0.564444 -1.41111,0.620889 -0.395111,0 -0.790222,-0.169333 -0.366889,-0.169334 -0.677333,-0.451556 -0.282222,-0.282222 -0.451555,-0.64911 -0.169333,-0.366889 -0.141111,-0.762 0.169333,-2.82222 0.338666,-5.587995 0.169334,-2.765776 0.310445,-5.587996 -1.185333,1.213555 -2.229554,2.709331 -1.044222,1.467555 -2.201332,2.709332 z"
           id="path1142" />
        <path
           style="color:#000000;-inkscape-font-specification:Mabook;fill:#1a1a1a;stroke:none;-inkscape-stroke:none"
           d="m 75.048828,18.082031 c -0.402128,-0.02011 -0.813395,0.0615 -1.226562,0.238281 -0.398479,0.159776 -0.814646,0.432743 -1.25586,0.816407 l -0.002,0.002 h -0.002 c -0.418702,0.380637 -0.825804,0.800083 -1.224609,1.255859 -0.397574,0.45437 -0.768173,0.908345 -1.109375,1.363281 -0.337821,0.450428 -0.628383,0.82628 -0.871094,1.125 -0.490372,0.584752 -0.961311,1.177581 -1.414063,1.78125 v 0.002 c -0.429802,0.579299 -0.889046,1.139616 -1.375,1.68164 -0.137165,0.136294 -0.262247,0.234127 -0.373047,0.298828 -0.09212,0.03807 -0.181113,0.04219 -0.298828,-0.002 -0.110143,-0.0413 -0.26669,-0.156358 -0.443359,-0.349609 l -0.002,-0.002 c -8.6e-4,-9.43e-4 -0.0011,-10e-4 -0.002,-0.002 -0.17874,-0.215045 -0.388108,-0.52609 -0.628907,-0.933594 l -0.002,-0.0039 -0.0039,-0.0039 C 64.269442,24.522697 63.743684,23.706449 63.236328,22.898437 62.725398,22.084733 62.167806,21.28922 61.5625,20.513672 l -0.002,-0.002 c -0.403246,-0.499257 -0.86559,-0.92256 -1.384766,-1.269532 -5.15e-4,-3.76e-4 -0.0014,3.77e-4 -0.002,0 -0.518356,-0.37824 -1.13366,-0.549111 -1.822266,-0.509765 l 0.002,-0.002 c -0.453853,0.01973 -0.864804,0.131054 -1.226563,0.332031 h -0.002 l -0.002,0.002 c -0.335655,0.197444 -0.623476,0.444872 -0.861328,0.742188 l -0.002,0.002 -0.002,0.0039 c -0.217346,0.296382 -0.393123,0.640229 -0.529296,1.029297 l -0.002,0.002 v 0.002 C 55.609863,21.21444 55.532477,21.602389 55.49386,22.0079 v 0.002 c -0.09452,1.134188 -0.13218,2.276805 -0.113282,3.429687 0.01884,1.130648 0.05675,2.261937 0.113282,3.392578 0.05659,1.24504 0.151125,2.470167 0.283203,3.677735 v 0.002 c 0.150619,1.204952 0.311023,2.410286 0.480468,3.615234 0.04108,0.308064 0.155702,0.582663 0.34375,0.8125 l 0.002,0.0039 0.0039,0.002 c 0.199887,0.219877 0.431237,0.400925 0.691406,0.541016 0.259955,0.139972 0.532219,0.231161 0.814453,0.271484 h 0.002 c 0.301889,0.04025 0.589357,0.01998 0.857422,-0.0625 h 0.002 c 0.61283,-0.197687 1.060386,-0.546553 1.306641,-1.039062 0.241359,-0.482718 0.310157,-1.036918 0.212891,-1.644531 -0.09399,-0.92054 -0.197794,-1.813146 -0.310547,-2.677735 v -0.002 c -0.0937,-0.862373 -0.16835,-1.742454 -0.22461,-2.642578 v -0.002 c -0.05627,-0.768943 -0.09453,-1.529312 -0.113281,-2.279297 -0.01404,-0.561812 -0.01599,-1.143631 -0.01953,-1.726562 l 0.546875,0.912109 0.002,0.0039 c 0.301882,0.452823 0.612895,0.904671 0.933594,1.357422 0.283011,0.415019 0.58389,0.839947 0.904297,1.273438 l 0.002,0.002 c 0.325451,0.421172 0.680889,0.805183 1.064453,1.15039 0.387795,0.349015 0.815087,0.632045 1.28125,0.845703 h 0.002 c 0.493382,0.217087 1.035845,0.314429 1.621094,0.294922 0.56764,-0.01957 1.110327,-0.15575 1.61914,-0.410156 v -0.002 h 0.002 c 0.523921,-0.271663 0.980222,-0.62297 1.369141,-1.050781 0.776057,-0.832942 1.515209,-1.739385 2.214844,-2.722657 v -0.002 c 0.598148,-0.856807 1.24694,-1.610201 1.914062,-2.326172 -0.08741,1.715535 -0.180094,3.421366 -0.283203,5.105469 -0.112892,1.843914 -0.224998,3.70635 -0.33789,5.587891 -0.02029,0.288676 0.03121,0.571201 0.154296,0.83789 0.120449,0.260972 0.283152,0.492137 0.484375,0.69336 l 0.002,0.0039 0.0039,0.002 c 0.218284,0.19844 0.457228,0.358715 0.716797,0.478516 h 0.002 l 0.002,0.002 c 0.28099,0.120424 0.567466,0.181641 0.853516,0.181641 h 0.0039 0.0059 c 0.613437,-0.03958 1.12674,-0.264397 1.511719,-0.667969 0.40245,-0.402447 0.628165,-0.914619 0.667969,-1.511719 v -0.002 c 0.112886,-2.107205 0.225004,-4.196051 0.33789,-6.265625 0.11283,-2.087346 0.235559,-4.182904 0.367188,-6.289063 v -0.002 c 0.03774,-0.472019 0.06707,-0.95273 0.08594,-1.443359 0.01941,-0.504537 -0.05029,-0.993528 -0.205078,-1.460938 -2.51e-4,-8.79e-4 -0.0017,-0.0011 -0.002,-0.002 -0.118322,-0.412889 -0.304582,-0.782171 -0.5625,-1.099609 -0.257402,-0.316803 -0.568211,-0.564918 -0.925781,-0.744141 -0.340699,-0.198864 -0.721388,-0.310302 -1.136719,-0.330078 z m -0.01563,0.316406 c 0.372066,0.01772 0.702743,0.114204 1,0.289063 l 0.0039,0.0039 0.0059,0.002 c 0.318714,0.159357 0.591078,0.379524 0.822265,0.664063 0.230717,0.283959 0.398357,0.610068 0.50586,0.986328 l 0.002,0.0039 v 0.0039 c 0.144462,0.433386 0.207572,0.882424 0.189453,1.353516 -0.01873,0.487078 -0.04653,0.965486 -0.08398,1.433594 v 0.002 c -0.131731,2.107696 -0.254275,4.206033 -0.367188,6.294922 -0.112892,2.069678 -0.224999,4.158319 -0.337891,6.265625 -0.03579,0.530862 -0.224509,0.958887 -0.574218,1.308594 h -0.002 l -0.002,0.002 c -0.328643,0.34594 -0.753729,0.533905 -1.302734,0.570312 -0.236807,-0.0011 -0.475074,-0.04933 -0.716797,-0.152344 l -0.0039,-0.002 C 73.945055,37.322563 73.736578,37.181292 73.542969,37.005859 73.369343,36.831523 73.229709,36.63312 73.125,36.40625 73.022588,36.184356 72.981086,35.958162 72.998047,35.720703 v -0.002 c 0.112885,-1.881415 0.225006,-3.742155 0.33789,-5.585938 0.112927,-1.84445 0.216445,-3.707786 0.310547,-5.589843 l 0.02148,-0.419922 -0.292969,0.300781 c -0.796709,0.815679 -1.545351,1.724749 -2.246094,2.728516 -0.692357,0.973042 -1.421113,1.870895 -2.1875,2.693359 h -0.002 c -0.363055,0.39936 -0.788277,0.725508 -1.279297,0.980469 -0.469555,0.234777 -0.96271,0.36085 -1.486328,0.378906 -0.542945,0.0181 -1.033568,-0.07127 -1.480469,-0.267578 h -0.002 c -0.436368,-0.200184 -0.836788,-0.465024 -1.201172,-0.792969 -0.368,-0.331201 -0.707956,-0.698177 -1.021484,-1.103515 l -0.002,-0.0039 c -0.317748,-0.429983 -0.618214,-0.850724 -0.898438,-1.261718 v -0.002 h -0.002 c -0.317633,-0.448424 -0.624845,-0.89735 -0.923828,-1.345703 v -0.002 c -9.95e-4,-0.0015 -0.0029,-0.0024 -0.0039,-0.0039 l -1.136719,-1.894531 v 0.572265 c 0,0.791479 0.0085,1.562429 0.02734,2.316407 0.01888,0.755197 0.05666,1.521052 0.113281,2.294921 0.05658,0.904747 0.132288,1.790854 0.226563,2.658204 v 0.002 0.002 c 0.112685,0.863922 0.216614,1.755243 0.310546,2.675781 v 0.0039 0.0059 c 0.08988,0.557231 0.02799,1.035814 -0.18164,1.455078 -0.204906,0.40981 -0.567258,0.700212 -1.119141,0.878906 -0.220523,0.06785 -0.45898,0.08541 -0.720703,0.05078 -0.24458,-0.03494 -0.479755,-0.1129 -0.708984,-0.236328 -0.226571,-0.121999 -0.426505,-0.277538 -0.601563,-0.46875 v -0.002 C 56.69772,36.552555 56.60441,36.339716 56.570312,36.083984 56.401273,34.881919 56.242075,33.678622 56.091797,32.476562 v -0.0039 c -0.13111,-1.199491 -0.225014,-2.419053 -0.28125,-3.65625 -0.05636,-1.127132 -0.0945,-2.253732 -0.113281,-3.380859 -0.01872,-1.141866 0.01977,-2.275486 0.113281,-3.398438 v -0.002 c 0.03656,-0.382532 0.108303,-0.745289 0.216797,-1.089844 l 0.002,-0.0039 C 56.156295,20.579775 56.317901,20.26696 56.513672,20 c 0.213019,-0.265207 0.469074,-0.486174 0.771484,-0.664063 0.314709,-0.17406 0.671972,-0.26928 1.082031,-0.287109 h 0.002 0.002 c 0.627745,-0.03587 1.15945,0.113294 1.61914,0.449219 l 0.002,0.002 0.002,0.002 c 0.494473,0.329649 0.934831,0.731722 1.320312,1.208984 0.598187,0.766575 1.149707,1.551862 1.654297,2.355469 0.508642,0.81006 1.035785,1.630198 1.582031,2.458985 0.245018,0.413977 0.464578,0.737962 0.660156,0.972656 l 0.002,0.002 0.002,0.0039 c 0.197475,0.217222 0.38049,0.364363 0.570312,0.435547 0.181014,0.06788 0.371635,0.07064 0.541016,-0.002 l 0.0078,-0.0039 0.0078,-0.0039 c 0.148641,-0.08494 0.299508,-0.207711 0.457031,-0.365234 l 0.0039,-0.002 0.002,-0.0039 c 0.492079,-0.548856 0.957163,-1.116338 1.392579,-1.703125 v -0.002 c 0.449532,-0.59933 0.917267,-1.188843 1.404296,-1.769532 l 0.002,-0.002 c 0.246474,-0.303352 0.539395,-0.682083 0.878906,-1.134765 0.33613,-0.448174 0.701103,-0.89501 1.09375,-1.34375 0.391416,-0.447332 0.792022,-0.858515 1.201172,-1.230469 0.421582,-0.365919 0.811972,-0.618929 1.164062,-0.759766 h 0.002 l 0.002,-0.002 c 0.376413,-0.161319 0.738045,-0.230383 1.087891,-0.212891 z"
           id="path1144" />
      </g>
      <g
         id="path1121"
         style="fill:#1a1a1a">
        <path
           style="color:#000000;-inkscape-font-specification:Mabook;fill:#1a1a1a;stroke:none;-inkscape-stroke:none"
           d="m 82.434836,34.242638 q -0.02822,0.874888 -0.620889,1.439332 -0.564444,0.564444 -1.41111,0.620889 -0.423333,0.02822 -0.790221,-0.141111 -0.366889,-0.169334 -0.677333,-0.451556 -0.282222,-0.310444 -0.451555,-0.677332 -0.141111,-0.395111 -0.141111,-0.790222 0.08467,-2.511776 0.169333,-4.995329 0.112889,-2.511776 0.169333,-5.051774 0.02822,-0.874889 0.592666,-1.439333 0.592667,-0.564444 1.439333,-0.592666 0.39511,-0.02822 0.761999,0.141111 0.395111,0.169333 0.677333,0.451555 0.282222,0.282222 0.423333,0.677333 0.169333,0.366889 0.169333,0.762 -0.08467,2.539998 -0.169333,5.051774 -0.05644,2.483553 -0.141111,4.995329 z M 80.854393,20.272649 q -0.846666,0 -1.41111,-0.592666 -0.564444,-0.620889 -0.620889,-1.439333 0,-0.423333 0.169333,-0.790221 0.169334,-0.395111 0.451556,-0.649111 0.282222,-0.282222 0.64911,-0.451555 0.366889,-0.169333 0.762,-0.169333 0.874888,0 1.439332,0.620888 0.564444,0.592666 0.592666,1.439332 0.02822,0.423333 -0.141111,0.790222 -0.169333,0.366889 -0.451555,0.649111 -0.282222,0.253999 -0.677333,0.423333 -0.366889,0.169333 -0.761999,0.169333 z"
           id="path1148" />
        <path
           style="color:#000000;-inkscape-font-specification:Mabook;fill:#1a1a1a;stroke:none;-inkscape-stroke:none"
           d="m 80.853516,16.021484 c -0.28605,0 -0.563877,0.06163 -0.828125,0.183594 -0.259639,0.119833 -0.48894,0.282628 -0.689454,0.482422 -0.2043,0.184761 -0.368459,0.419128 -0.488281,0.697266 -2.67e-4,5.79e-4 2.67e-4,0.0014 0,0.002 -3.82e-4,8.89e-4 -0.0016,0.0011 -0.002,0.002 -0.121426,0.264579 -0.181641,0.549674 -0.181641,0.851562 v 0.0059 0.0059 c 0.03994,0.579063 0.264265,1.097527 0.66211,1.535156 h 0.002 v 0.002 c 0.403591,0.423771 0.923964,0.642579 1.525391,0.642579 0.284766,0 0.562985,-0.06272 0.826171,-0.183594 0.277222,-0.11881 0.518236,-0.268952 0.720704,-0.451172 l 0.002,-0.002 0.0039,-0.002 c 0.201223,-0.201224 0.361973,-0.43434 0.482422,-0.695313 0.123199,-0.266936 0.175593,-0.557268 0.15625,-0.861328 v -0.002 c -0.02029,-0.596009 -0.235833,-1.118636 -0.634766,-1.539063 -0.403714,-0.444085 -0.935888,-0.673828 -1.55664,-0.673828 z m 0,0.31836 c 0.545763,0 0.973388,0.184595 1.322265,0.568359 l 0.002,0.002 h 0.002 c 0.351211,0.368771 0.531145,0.805427 0.548829,1.335938 v 0.002 0.0039 c 0.01721,0.258197 -0.02519,0.4924 -0.126954,0.712891 -0.104709,0.22687 -0.244343,0.425273 -0.417968,0.599609 -0.173238,0.15525 -0.380769,0.286233 -0.628907,0.392578 l -0.002,0.002 h -0.002 c -0.224936,0.103817 -0.456502,0.154297 -0.697265,0.154297 -0.527461,0 -0.945922,-0.176518 -1.294922,-0.542969 -0.351657,-0.388198 -0.540142,-0.827214 -0.576172,-1.335937 8.5e-4,-0.258559 0.05003,-0.495122 0.152344,-0.716797 l 0.002,-0.002 v -0.002 c 0.105174,-0.245406 0.24262,-0.44121 0.412109,-0.59375 l 0.0039,-0.0039 0.002,-0.002 c 0.175073,-0.175072 0.375305,-0.314593 0.603516,-0.419921 0.224936,-0.103817 0.454548,-0.154297 0.695313,-0.154297 z m -0.148438,5.666015 c -0.597566,0.02035 -1.120021,0.233819 -1.541016,0.634766 v 0.002 l -0.002,0.002 c -0.404316,0.404315 -0.618796,0.928728 -0.638672,1.544922 v 0.002 c -0.0376,1.692144 -0.09472,3.375523 -0.169921,5.048828 v 0.002 c -0.05644,1.655721 -0.113475,3.319606 -0.169922,4.994141 v 0.0039 0.002 c 0,0.282277 0.05069,0.564584 0.15039,0.84375 l 0.002,0.0078 0.0039,0.0059 c 0.1198,0.259568 0.280076,0.498514 0.478515,0.716797 l 0.0039,0.0059 0.0059,0.0059 c 0.218284,0.19844 0.459182,0.356761 0.71875,0.476562 0.268694,0.124012 0.560941,0.176665 0.867187,0.15625 0.596169,-0.03975 1.107602,-0.262796 1.509766,-0.664062 l 0.002,-0.002 c 0.422573,-0.403396 0.648069,-0.92992 0.667969,-1.546875 0.05644,-1.674435 0.102992,-3.340446 0.140625,-4.996094 V 29.25 c 0.05642,-1.673896 0.113496,-3.356133 0.169922,-5.048828 v -0.0039 -0.002 c 0,-0.281263 -0.06174,-0.554171 -0.179688,-0.814453 -3.14e-4,-8.79e-4 -0.0016,-0.0011 -0.002,-0.002 -0.101323,-0.282566 -0.252707,-0.530051 -0.457031,-0.734375 -0.202087,-0.202086 -0.446202,-0.364491 -0.724609,-0.484375 -6.02e-4,-2.77e-4 -0.0014,2.77e-4 -0.002,0 -0.264955,-0.121937 -0.545365,-0.173797 -0.832031,-0.154297 z m 0.01367,0.316407 h 0.002 0.0039 c 0.237459,-0.01696 0.4617,0.02454 0.683594,0.126953 h 0.002 l 0.002,0.002 c 0.246662,0.105712 0.455702,0.244764 0.628907,0.417969 0.171336,0.171336 0.297928,0.374042 0.384765,0.617187 l 0.0039,0.0078 0.002,0.0059 c 0.103816,0.224936 0.154296,0.454548 0.154296,0.695312 -0.05638,1.691328 -0.111592,3.374319 -0.167968,5.046875 v 0.002 c -0.03761,1.655114 -0.0842,3.318244 -0.140625,4.992187 v 0.002 c -0.0177,0.548621 -0.205859,0.979168 -0.572266,1.328125 l -0.002,0.002 -0.002,0.002 c -0.350145,0.350145 -0.776807,0.538766 -1.308594,0.574219 -0.258197,0.01721 -0.492401,-0.02519 -0.712891,-0.126953 -0.226208,-0.104404 -0.435693,-0.243827 -0.628906,-0.417969 -0.174429,-0.192501 -0.314962,-0.399675 -0.419922,-0.625 -0.08632,-0.243677 -0.128248,-0.485896 -0.128906,-0.726562 v -0.0059 c 0.05636,-1.671858 0.111616,-3.335179 0.167969,-4.988281 v -0.002 c 0.07524,-1.67444 0.132281,-3.35758 0.169922,-5.050781 v -0.002 c 0.01814,-0.549341 0.199034,-0.982239 0.546875,-1.330078 0.368064,-0.349123 0.80312,-0.529245 1.332031,-0.546875 z"
           id="path1150" />
      </g>
      <g
         id="path1123"
         style="fill:#1a1a1a">
        <path
           style="color:#000000;-inkscape-font-specification:Mabook;fill:#1a1a1a;stroke:none;-inkscape-stroke:none"
           d="m 99.960807,33.198417 q 0.141113,0.423333 0.05644,0.818443 -0.05644,0.395111 -0.25401,0.733778 -0.197555,0.338666 -0.536222,0.592666 -0.310444,0.254 -0.677333,0.366888 -1.128888,0.423333 -2.398887,0.705555 -1.269999,0.282222 -2.596442,0.395111 -1.298221,0.08467 -2.596443,-0.02822 -1.298221,-0.141111 -2.455331,-0.536222 -1.890887,-0.64911 -3.019775,-1.834443 -1.100666,-1.185332 -1.523999,-2.624664 -0.423333,-1.467555 -0.225778,-3.07622 0.197556,-1.608666 0.903111,-3.132665 0.705555,-1.523998 1.834443,-2.82222 1.128888,-1.326443 2.596442,-2.201331 1.213555,-0.705555 2.624665,-1.100666 1.41111,-0.423333 2.793998,-0.423333 1.41111,0 2.709331,0.508 1.298221,0.479777 2.285998,1.608665 0.564452,0.649111 0.592682,1.41111 0.0282,0.423333 -0.141127,0.790222 -0.169333,0.366888 -0.451555,0.677332 -0.254,0.282222 -0.649111,0.451556 -0.39511,0.141111 -0.790221,0.141111 -0.338667,0 -0.790222,-0.141111 -0.423333,-0.169334 -0.64911,-0.451556 -0.564444,-0.564444 -1.41111,-0.761999 -0.818444,-0.225778 -1.66511,-0.112889 -0.818444,0.08467 -1.636888,0.479778 -0.818444,0.366888 -1.552221,0.931332 -0.931333,0.733777 -1.693332,1.834443 -0.733777,1.100666 -0.959555,2.257776 -0.197555,1.128888 0.310444,2.17311 0.508,1.044221 2.060221,1.66511 1.66511,0.64911 3.555997,0.338666 1.91911,-0.310444 3.83822,-1.044221 0.39511,-0.141111 0.790221,-0.05645 0.423333,0.05645 0.762,0.282222 0.338666,0.197556 0.592666,0.508 0.254,0.310444 0.366888,0.677333 z"
           id="path1154" />
        <path
           style="color:#000000;-inkscape-font-specification:Mabook;fill:#1a1a1a;stroke:none;-inkscape-stroke:none"
           d="m 94.486328,18.873047 c -0.938098,0 -1.885455,0.143371 -2.839844,0.429687 -0.952007,0.266781 -1.837931,0.638333 -2.658203,1.115235 h -0.002 c -0.993276,0.592145 -1.873304,1.339316 -2.636719,2.236328 -0.761185,0.875745 -1.381099,1.828565 -1.857422,2.857422 -0.476932,1.030174 -0.782267,2.090597 -0.916015,3.179687 -0.134084,1.091825 -0.05785,2.141129 0.230469,3.140625 0.28939,0.983929 0.811897,1.881263 1.560546,2.6875 v 0.002 c 0.773106,0.811762 1.804534,1.435786 3.083985,1.875 0.7831,0.2674 1.613985,0.447725 2.490234,0.542969 h 0.002 v 0.002 c 0.873431,0.07595 1.747625,0.08431 2.621094,0.02734 h 0.002 0.002 c 0.891156,-0.07584 1.763484,-0.208726 2.617188,-0.398438 0.849983,-0.188885 1.652734,-0.425462 2.410156,-0.708984 0.262289,-0.0807 0.506306,-0.211541 0.726563,-0.390625 l 0.002,-0.002 c 0.239925,-0.180379 0.433753,-0.394525 0.576172,-0.638672 0.140868,-0.241481 0.230638,-0.50474 0.271488,-0.785156 0.0609,-0.289387 0.0394,-0.590599 -0.0606,-0.892578 -0.0814,-0.264519 -0.213108,-0.510682 -0.394532,-0.732422 -0.180165,-0.220202 -0.391712,-0.39999 -0.632813,-0.541016 -0.243082,-0.160909 -0.518779,-0.261883 -0.818359,-0.302734 -0.289752,-0.06096 -0.582442,-0.03989 -0.869141,0.0625 h -0.002 -0.002 c -1.269908,0.485553 -2.538447,0.83196 -3.806641,1.037109 -1.235822,0.202896 -2.389467,0.09218 -3.472656,-0.330078 -1.0119,-0.40476 -1.660271,-0.937738 -1.976562,-1.587891 -0.324701,-0.667441 -0.422114,-1.352033 -0.296875,-2.072265 v -0.002 c 0.146127,-0.74761 0.455701,-1.479856 0.933593,-2.197266 l 0.002,-0.002 c 0.499736,-0.721391 1.053707,-1.319067 1.660156,-1.796875 0.479363,-0.368579 0.984005,-0.672922 1.517578,-0.912109 h 0.0039 l 0.002,-0.002 c 0.530993,-0.256339 1.058078,-0.410437 1.583985,-0.464843 h 0.002 0.002 c 0.54409,-0.07255 1.075968,-0.03562 1.601562,0.109375 h 0.0039 0.002 c 0.539504,0.125884 0.981123,0.365889 1.335937,0.720703 L 96.478516,24.125 c 0.171045,0.213807 0.413451,0.379442 0.714843,0.5 l 0.0059,0.002 0.0059,0.002 c 0.311804,0.09744 0.588146,0.148438 0.835938,0.148438 0.282276,0 0.564584,-0.05069 0.84375,-0.150391 l 0.0059,-0.002 0.0039,-0.002 c 0.280883,-0.120379 0.517157,-0.283974 0.703125,-0.490235 0.19844,-0.218283 0.358715,-0.457228 0.478518,-0.716796 0.12346,-0.267519 0.17594,-0.558497 0.15625,-0.863282 v -0.002 c -0.0206,-0.544709 -0.235711,-1.053386 -0.630862,-1.507812 h -0.002 C 98.926134,20.273283 98.142474,19.720023 97.251953,19.390625 H 97.25 c -0.883079,-0.345296 -1.804568,-0.517578 -2.763672,-0.517578 z m 0,0.316406 c 0.921719,0 1.803059,0.164529 2.650391,0.496094 l 0.002,0.002 h 0.002 c 0.839825,0.31037 1.577518,0.829385 2.220703,1.564453 0.357,0.410553 0.537253,0.841892 0.554688,1.3125 v 0.002 0.002 c 0.0172,0.258201 -0.0252,0.494351 -0.126954,0.714844 -0.105976,0.229616 -0.247925,0.441078 -0.425781,0.636719 -0.151628,0.168475 -0.346495,0.305229 -0.589844,0.410156 -0.245581,0.087 -0.489876,0.130859 -0.732421,0.130859 -0.201594,0 -0.448071,-0.04407 -0.734375,-0.132812 -0.260576,-0.104949 -0.450881,-0.238893 -0.580079,-0.400391 l -0.0059,-0.0078 -0.0059,-0.0059 c -0.396751,-0.39675 -0.896973,-0.66489 -1.484375,-0.802734 -0.563173,-0.15482 -1.138569,-0.194285 -1.720703,-0.117187 h -0.0039 c -0.56276,0.05867 -1.123919,0.223462 -1.68164,0.492187 -0.557181,0.24977 -1.085382,0.567631 -1.583985,0.951172 h -0.002 c -0.634643,0.500021 -1.208791,1.12407 -1.724609,1.869141 l -0.002,0.002 c -0.499242,0.748863 -0.827532,1.522594 -0.982422,2.316406 h -0.002 v 0.002 c -0.13711,0.783489 -0.02781,1.545911 0.324218,2.269531 0.361042,0.742141 1.086806,1.32105 2.144532,1.744141 h 0.002 c 1.136956,0.44322 2.353315,0.558685 3.638672,0.347656 1.289238,-0.208553 2.577705,-0.558794 3.865234,-1.050781 0.238192,-0.08507 0.467942,-0.101174 0.703125,-0.05078 h 0.0078 l 0.0059,0.002 c 0.260269,0.03471 0.489823,0.11887 0.695312,0.255859 l 0.0039,0.0039 0.0039,0.002 c 0.209462,0.122186 0.390923,0.277708 0.548828,0.470703 0.157243,0.192185 0.268763,0.39838 0.337891,0.623047 l 0.002,0.002 v 0.002 c 0.08639,0.259165 0.101019,0.501903 0.05078,0.736328 v 0.0039 l -0.002,0.0059 c -0.03486,0.244054 -0.110924,0.467501 -0.232422,0.675781 -0.12053,0.206624 -0.283579,0.388954 -0.494141,0.546875 l -0.0039,0.002 -0.002,0.002 c -0.192185,0.157243 -0.39838,0.268763 -0.623047,0.337891 l -0.0059,0.002 -0.0039,0.002 c -0.745137,0.279426 -1.536963,0.512554 -2.376954,0.699219 -0.838382,0.186307 -1.696189,0.315894 -2.572265,0.390625 -0.85619,0.05584 -1.714083,0.04691 -2.570313,-0.02734 h -0.0039 c -0.853246,-0.09302 -1.657474,-0.270282 -2.416016,-0.529297 -1.240765,-0.425934 -2.22318,-1.023194 -2.955078,-1.791016 l -0.002,-0.002 c -0.717442,-0.773205 -1.21143,-1.624884 -1.486328,-2.558593 v -0.002 c -0.275689,-0.956683 -0.349943,-1.959337 -0.220703,-3.011718 0.129659,-1.055796 0.424865,-2.084116 0.888672,-3.085938 0.464038,-1.002322 1.067378,-1.930512 1.810547,-2.785156 h 0.002 c 0.741438,-0.871189 1.591755,-1.593722 2.554687,-2.167969 0.797073,-0.463414 1.65938,-0.824001 2.587891,-1.083984 l 0.002,-0.002 c 0.92709,-0.278127 1.844249,-0.416016 2.75,-0.416016 z"
           id="path1156" />
      </g>
      <g
         id="path1125"
         style="fill:#1a1a1a">
        <path
           style="color:#000000;-inkscape-font-specification:Mabook;fill:#1a1a1a;stroke:none;-inkscape-stroke:none"
           d="m 105.35123,33.875749 q 0,0.338667 0,0.705555 0.0282,0.338667 0.0282,0.705555 0.0282,0.874889 -0.59267,1.439333 -0.62089,0.564444 -1.43933,0.592666 -0.42333,0.02822 -0.79022,-0.141111 -0.36689,-0.169333 -0.64911,-0.451555 -0.254,-0.282222 -0.42334,-0.649111 -0.16933,-0.395111 -0.16933,-0.790222 -0.0564,-4.176885 -0.254,-8.297327 -0.16933,-4.120441 -0.39511,-8.297326 -0.0282,-0.423333 0.14111,-0.790222 0.16933,-0.366889 0.45156,-0.620888 0.31044,-0.282222 0.67733,-0.423333 0.36689,-0.169334 0.762,-0.197556 0.39511,-0.02822 0.70555,0.112889 0.33867,0.112889 0.59267,0.338666 1.12889,-0.08467 2.37066,0.112889 1.24178,0.169333 2.39889,0.649111 1.016,0.395111 1.83444,1.072443 0.81845,0.677333 1.38289,1.552221 0.59267,0.846666 0.87489,1.862666 0.31045,1.015999 0.28222,2.116665 -0.0564,1.947331 -1.12889,3.612441 -1.04422,1.636888 -2.62466,2.850443 0.42333,0.141111 0.84667,0.253999 0.42333,0.08467 0.87488,0.197556 0.81845,0.225777 1.18534,0.987777 0.39511,0.733777 0.22577,1.523999 -0.0847,0.423333 -0.33866,0.733777 -0.254,0.310444 -0.62089,0.507999 -0.33867,0.169334 -0.762,0.225778 -0.39511,0.05644 -0.79022,-0.02822 -1.18533,-0.310444 -2.34244,-0.649111 -1.12889,-0.366888 -2.31422,-0.818444 z m 2.51177,-6.942661 q 0.45156,-0.479777 0.762,-1.15711 0.31045,-0.705555 0.36689,-1.41111 0.0564,-0.705555 -0.22578,-1.354666 -0.28222,-0.64911 -0.98778,-1.072443 -0.56444,-0.338667 -1.29822,-0.479778 -0.73377,-0.169333 -1.55222,-0.310444 h -0.0282 q 0.0847,1.862665 0.16933,3.72533 0.0847,1.834443 0.14111,3.697109 0.73378,-0.225778 1.41111,-0.620889 0.70556,-0.423333 1.24178,-1.015999 z"
           id="path1160" />
        <path
           style="color:#000000;-inkscape-font-specification:Mabook;fill:#1a1a1a;stroke:none;-inkscape-stroke:none"
           d="m 102.6875,16.501953 c -0.28034,0.02002 -0.55302,0.09002 -0.8125,0.208984 -0.26211,0.101407 -0.50355,0.253932 -0.72266,0.453125 -0.20464,0.184174 -0.36718,0.409498 -0.48828,0.671875 -0.12372,0.268105 -0.17629,0.559722 -0.15625,0.865235 0.15049,2.783915 0.28168,5.548656 0.39453,8.294922 v 0.002 c 0.13165,2.74512 0.21633,5.508223 0.25391,8.291015 2.7e-4,0.285421 0.0634,0.569236 0.18359,0.84961 v 0.002 l 0.002,0.002 c 0.11905,0.25793 0.26875,0.488939 0.44922,0.689453 l 0.002,0.0039 0.004,0.002 c 0.20122,0.201223 0.43238,0.363926 0.69335,0.484375 0.26811,0.12374 0.55972,0.174352 0.86524,0.154296 0.57986,-0.02042 1.09898,-0.234516 1.53711,-0.632812 0.44495,-0.404518 0.66457,-0.940709 0.64453,-1.5625 -1.5e-4,-0.241762 -0.009,-0.474644 -0.0273,-0.699219 v -0.01367 -0.46875 c 0.71605,0.269238 1.42204,0.523347 2.10742,0.746094 h 0.002 0.002 c 0.77288,0.226209 1.55405,0.443052 2.34571,0.650391 l 0.004,0.002 h 0.004 c 0.28104,0.06022 0.56399,0.07149 0.8457,0.03125 0.29655,-0.03973 0.56798,-0.120903 0.81055,-0.242188 h 0.002 l 0.002,-0.002 c 0.26166,-0.140895 0.48538,-0.323718 0.66796,-0.546875 0.18565,-0.22694 0.30992,-0.497078 0.3711,-0.800781 0.12001,-0.560024 0.0373,-1.111542 -0.24024,-1.628906 -0.26216,-0.541713 -0.70084,-0.90771 -1.2832,-1.06836 l -0.002,-0.002 h -0.002 c -0.29995,-0.07499 -0.58915,-0.14071 -0.87109,-0.197265 l -0.01,-0.002 c -0.1972,-0.05273 -0.39452,-0.115683 -0.5918,-0.177734 0.96797,-0.780555 1.81479,-1.65736 2.4707,-2.685547 0.72954,-1.132656 1.11589,-2.367385 1.1543,-3.693359 0.0192,-0.749914 -0.077,-1.474055 -0.28906,-2.167969 -0.19281,-0.692295 -0.49191,-1.328286 -0.89649,-1.90625 -0.38456,-0.595032 -0.85589,-1.123665 -1.41211,-1.583984 -0.55835,-0.462084 -1.18319,-0.82843 -1.875,-1.097657 h -0.002 c -0.78213,-0.324123 -1.59243,-0.54344 -2.43164,-0.658203 h -0.004 c -0.8202,-0.130207 -1.6047,-0.16568 -2.35547,-0.113281 -0.16983,-0.138071 -0.35687,-0.255268 -0.57226,-0.328125 -0.23188,-0.103814 -0.49126,-0.145154 -0.77344,-0.125 z m 0.0215,0.316406 c 0.24174,-0.01727 0.44864,0.01767 0.62891,0.09961 l 0.008,0.002 0.008,0.0039 c 0.20698,0.06899 0.38411,0.170647 0.53711,0.306641 l 0.0508,0.04492 0.0664,-0.0059 c 0.7391,-0.05543 1.51697,-0.01865 2.33399,0.111328 h 0.002 0.002 c 0.81453,0.111072 1.60041,0.323977 2.35938,0.638672 l 0.002,0.002 h 0.002 c 0.66222,0.257529 1.25855,0.606209 1.79102,1.046875 0.5336,0.441595 0.98213,0.946035 1.34961,1.515625 l 0.002,0.002 0.002,0.0039 c 0.38481,0.549725 0.66803,1.153749 0.85156,1.814453 l 0.002,0.002 v 0.002 c 0.2019,0.660751 0.2938,1.348767 0.27539,2.066406 -0.0371,1.269706 -0.40343,2.442373 -1.10351,3.529297 v 0.002 c -0.6862,1.075664 -1.5482,2.010254 -2.58789,2.808594 l -0.23633,0.181641 0.28125,0.0957 c 0.28522,0.09508 0.57202,0.179753 0.85742,0.255859 l 0.004,0.002 h 0.006 c 0.27956,0.05592 0.56841,0.122574 0.86718,0.197266 0.50495,0.140467 0.8535,0.431759 1.08008,0.902344 l 0.002,0.002 0.002,0.0039 c 0.24766,0.45995 0.31643,0.923726 0.21093,1.416016 l -0.002,0.002 c -0.052,0.259648 -0.15227,0.477745 -0.30469,0.664062 -0.15518,0.189672 -0.34453,0.344613 -0.57031,0.466797 -5.3e-4,2.63e-4 -0.001,-2.62e-4 -0.002,0 -8.4e-4,4.55e-4 -0.001,0.0015 -0.002,0.002 -0.20757,0.103234 -0.44146,0.173574 -0.70704,0.208985 h -0.002 c -0.2451,0.03501 -0.48861,0.02532 -0.73437,-0.02734 -0.78611,-0.205963 -1.56466,-0.419932 -2.33204,-0.644531 h 0.006 c -0.71697,-0.233016 -1.45336,-0.494694 -2.20507,-0.779297 v -0.0625 l -0.17383,0.01758 -0.0352,0.253906 -0.10742,-0.09766 v 0.712891 0.0059 c 0.0184,0.221061 0.0273,0.452829 0.0273,0.693359 v 0.002 0.002 c 0.0176,0.544726 -0.15814,0.970286 -0.54101,1.318359 -0.38925,0.353863 -0.82726,0.533173 -1.33789,0.550781 h -0.002 -0.004 c -0.2582,0.01721 -0.4924,-0.02519 -0.71289,-0.126953 -0.22737,-0.104939 -0.42696,-0.243808 -0.60157,-0.417969 -6.4e-4,-6.46e-4 -0.001,-0.0013 -0.002,-0.002 -0.15447,-0.173084 -0.2837,-0.37316 -0.38867,-0.599609 v -0.002 c -4e-4,-8.57e-4 -0.002,-0.0011 -0.002,-0.002 -0.10414,-0.244374 -0.1543,-0.483262 -0.1543,-0.722657 v -0.002 c -0.0376,-2.786382 -0.12209,-5.553937 -0.25391,-8.302734 -0.11291,-2.74765 -0.24593,-5.513569 -0.39648,-8.298828 v -0.002 c -0.0172,-0.258202 0.0252,-0.492397 0.12695,-0.712891 0.10468,-0.226807 0.2424,-0.415821 0.41406,-0.570313 0.1937,-0.176086 0.40338,-0.305836 0.62891,-0.392578 l 0.004,-0.002 0.004,-0.002 c 0.22798,-0.105221 0.46262,-0.166136 0.70703,-0.183594 z m 2.0254,4.169922 0.008,0.166016 c 0.0565,1.241773 0.11155,2.484789 0.16797,3.726562 0.0564,1.222112 0.10304,2.452409 0.14062,3.69336 l 0.008,0.208984 0.19727,-0.0625 c 0.50092,-0.15413 0.98359,-0.365427 1.44531,-0.634766 h 0.002 c 0.48236,-0.289414 0.90772,-0.638957 1.27539,-1.044921 5.9e-4,-6.29e-4 0.001,-0.0013 0.002,-0.002 l 0.24023,-0.263671 h -0.0664 c 0.22698,-0.282795 0.44932,-0.571591 0.61523,-0.933594 v -0.002 c 0.21339,-0.484956 0.34173,-0.973682 0.38086,-1.462891 0.0396,-0.495147 -0.0403,-0.97415 -0.23828,-1.429687 -0.20238,-0.465478 -0.55971,-0.848719 -1.05273,-1.144532 -0.39395,-0.236371 -0.84474,-0.402908 -1.34961,-0.5 -0.49079,-0.113143 -1.00839,-0.216358 -1.55469,-0.310547 l -0.0137,-0.0039 z m 0.33398,0.34961 c 0.47846,0.08524 0.94377,0.175425 1.37695,0.27539 h 0.002 0.002 c 0.47349,0.09106 0.88941,0.245753 1.24805,0.460938 0.44772,0.26863 0.74991,0.599998 0.92382,1 0.17821,0.409943 0.24851,0.831752 0.21289,1.277343 -0.036,0.450317 -0.15395,0.902881 -0.35351,1.357422 -0.20074,0.43798 -0.44447,0.809291 -0.73242,1.115235 l -0.002,0.002 c -0.34687,0.383386 -0.74945,0.711781 -1.20703,0.986328 -0.37828,0.220531 -0.775,0.380253 -1.17968,0.519531 -0.0364,-1.163412 -0.0799,-2.319889 -0.13282,-3.466797 -0.0534,-1.175996 -0.10473,-2.351347 -0.1582,-3.527343 z"
           id="path1162" />
      </g>
      <g
         id="path1127"
         style="fill:#1a1a1a">
        <path
           style="color:#000000;-inkscape-font-specification:Mabook;fill:#1a1a1a;stroke:none;-inkscape-stroke:none"
           d="m 114.46699,26.453311 q 0.56445,-1.721555 1.72156,-3.301998 1.18533,-1.608665 2.73755,-2.596442 1.58044,-0.987777 3.44311,-1.100666 1.86267,-0.141111 3.78178,1.044221 1.32644,0.818444 2.28599,2.031999 0.95956,1.213554 1.41111,2.652887 0.36689,1.185332 0.36689,2.427109 0,1.241777 -0.33866,2.455331 -0.31045,1.185333 -0.93134,2.285999 -0.62089,1.072443 -1.49577,1.919109 -0.98778,0.931333 -2.20134,1.552221 -1.18533,0.592666 -2.48355,0.818444 -1.29822,0.197555 -2.62466,0 -1.29822,-0.225778 -2.51178,-0.90311 -1.18533,-0.677333 -2.00378,-1.749777 -0.81844,-1.072443 -1.21355,-2.31422 -0.39511,-1.241777 -0.39511,-2.596443 0,-1.354665 0.45155,-2.624664 z m 10.24466,4.797774 q 0.56445,-0.564444 0.84667,-1.269999 0.28222,-0.733777 0.42333,-1.608666 0.16934,-1.128888 -0.22578,-2.201331 -0.36688,-1.072444 -1.12888,-1.749777 -0.73378,-0.705555 -1.72156,-0.818444 -0.95955,-0.112888 -1.97555,0.649111 -1.83445,1.298221 -2.51178,3.414886 -0.36689,1.072444 -0.19755,2.003777 0.16933,0.90311 0.73377,1.608665 0.508,0.677333 1.24178,1.015999 0.73378,0.310444 1.524,0.310444 0.81844,-0.02822 1.60867,-0.366888 0.79022,-0.338667 1.38288,-0.987777 z"
           id="path1166" />
        <path
           style="color:#000000;-inkscape-font-specification:Mabook;fill:#1a1a1a;stroke:none;-inkscape-stroke:none"
           d="m 122.35742,19.296875 c -1.26621,0.07705 -2.44111,0.451474 -3.51562,1.123047 v 0.002 c -1.05228,0.66963 -1.98062,1.548196 -2.78125,2.634766 v 0.002 c -0.77945,1.064615 -1.36035,2.178731 -1.74219,3.341797 -0.30699,0.863425 -0.46094,1.757014 -0.46094,2.677734 0,0.918519 0.13389,1.800812 0.40235,2.644531 0.26899,0.84542 0.68221,1.632692 1.23828,2.361328 0.55825,0.731505 1.24292,1.331332 2.05078,1.792969 h 0.002 c 0.8235,0.459624 1.67888,0.766248 2.5625,0.919922 l 0.002,0.002 h 0.002 c 0.89936,0.133947 1.79069,0.134093 2.67187,0 l 0.002,-0.002 c 0.88052,-0.153135 1.72362,-0.43017 2.52734,-0.832031 h 0.002 c 0.82213,-0.420619 1.56898,-0.947072 2.23828,-1.578125 v -0.002 c 0.59382,-0.57467 1.1024,-1.22588 1.52344,-1.953125 v -0.002 h 0.002 c 0.42004,-0.744599 0.73484,-1.519244 0.94532,-2.322265 v -0.002 c 0.22918,-0.821902 0.34375,-1.652528 0.34375,-2.494141 0,-0.84346 -0.12383,-1.669454 -0.37305,-2.474609 -0.30682,-0.978011 -0.78834,-1.881617 -1.43945,-2.705078 -0.65099,-0.82331 -1.42662,-1.513316 -2.32617,-2.06836 -1.30066,-0.803343 -2.59643,-1.162808 -3.875,-1.066406 z m 0.0234,0.314453 c 1.20436,-0.09124 2.42999,0.244789 3.6875,1.021484 0.86903,0.536215 1.61573,1.201333 2.24414,1.996094 0.6283,0.794609 1.08952,1.660465 1.38477,2.601563 0.23997,0.775285 0.35937,1.568619 0.35937,2.380859 0,0.813442 -0.11002,1.616556 -0.33203,2.412109 h -0.002 v 0.002 c -0.20346,0.7768 -0.5085,1.52563 -0.91602,2.248046 -0.40654,0.7017 -0.89477,1.329232 -1.4668,1.882813 -0.64773,0.610723 -1.3681,1.11816 -2.16406,1.525391 -0.7749,0.387252 -1.58728,0.654785 -2.43555,0.802734 -0.84977,0.129313 -1.70889,0.129459 -2.57812,0 -0.84503,-0.147464 -1.66253,-0.440771 -2.45508,-0.882813 l -0.002,-0.002 c -0.7715,-0.441274 -1.42264,-1.009352 -1.95508,-1.707031 -0.53519,-0.701286 -0.92968,-1.455343 -1.1875,-2.265625 -0.25836,-0.811981 -0.38867,-1.661128 -0.38867,-2.548828 0,-0.885498 0.14828,-1.742361 0.44336,-2.572266 v -0.002 -0.002 c 0.37061,-1.130345 0.9373,-2.214902 1.69922,-3.255859 0.77951,-1.057912 1.67648,-1.909328 2.69336,-2.556641 1.03219,-0.645123 2.15252,-1.002437 3.36914,-1.076172 h 0.002 z m 0.54297,3.833984 c -0.6859,-0.08069 -1.3878,0.155275 -2.08594,0.677735 -1.24861,0.88363 -2.10897,2.054384 -2.57031,3.496094 -0.25042,0.733815 -0.32132,1.430042 -0.20313,2.080078 0.11711,0.624597 0.37317,1.186507 0.76368,1.675781 0.35303,0.470716 0.78772,0.82766 1.30078,1.064453 h 0.004 l 0.002,0.002 c 0.50799,0.214918 1.03836,0.322266 1.58593,0.322266 h 0.002 0.002 c 0.56569,-0.01951 1.12245,-0.145951 1.66602,-0.378906 0.54732,-0.23457 1.02799,-0.578837 1.4375,-1.027344 0.38774,-0.389035 0.68155,-0.829864 0.87695,-1.31836 l 0.002,-0.002 c 0.19255,-0.500622 0.33603,-1.045891 0.43164,-1.638672 v -0.002 c 0.11667,-0.777758 0.0378,-1.540514 -0.23437,-2.279297 -0.25156,-0.73401 -0.64104,-1.340862 -1.16797,-1.810546 -4.5e-4,-4.33e-4 -0.001,4.32e-4 -0.002,0 -0.51148,-0.491285 -1.12003,-0.782412 -1.81055,-0.861329 z m -0.0371,0.314454 c 0.62591,0.07153 1.16424,0.326722 1.63086,0.77539 l 0.002,0.002 0.002,0.002 c 0.4864,0.432351 0.84697,0.99076 1.08399,1.683594 l 0.002,0.002 v 0.002 c 0.25464,0.691141 0.32592,1.395623 0.2168,2.123047 -0.0925,0.572961 -0.23053,1.097027 -0.41406,1.574219 -0.18003,0.449069 -0.44893,0.853229 -0.81055,1.214844 l -0.002,0.002 -0.004,0.0039 c -0.38071,0.416972 -0.82183,0.732233 -1.32812,0.949219 -0.50947,0.21834 -1.02393,0.335178 -1.54883,0.353516 -0.50466,-5.06e-4 -0.98981,-0.100331 -1.45899,-0.298829 -0.46311,-0.214743 -0.85265,-0.534007 -1.17578,-0.964843 l -0.002,-0.002 -0.002,-0.002 c -0.36014,-0.450173 -0.59264,-0.959791 -0.70118,-1.537109 v -0.002 c -0.10692,-0.590034 -0.046,-1.227973 0.19141,-1.921875 v -0.002 -0.002 c 0.44176,-1.380508 1.25581,-2.486655 2.45312,-3.333985 h 0.002 l 0.002,-0.002 c 0.65517,-0.491374 1.26918,-0.688805 1.86133,-0.61914 z"
           id="path1168" />
      </g>
      <g
         id="path1129"
         style="fill:#1a1a1a">
        <path
           style="color:#000000;-inkscape-font-specification:Mabook;fill:#1a1a1a;stroke:none;-inkscape-stroke:none"
           d="m 145.34207,14.458876 q 0.39511,0.08467 0.70556,0.338666 0.33866,0.254 0.53622,0.620888 0.19755,0.366889 0.254,0.790222 0.0564,0.395111 -0.0565,0.761999 -0.79022,2.709332 -1.55222,5.390441 -0.762,2.681109 -1.55222,5.362218 -0.16933,0.592666 -0.42333,1.523999 -0.22578,0.931332 -0.508,1.947331 -0.254,1.016 -0.53622,2.003777 -0.254,0.987777 -0.45156,1.749776 -0.28222,1.15711 -1.016,1.834443 -0.70555,0.649111 -1.58044,0.733777 -0.84667,0.08467 -1.69333,-0.451555 -0.81845,-0.536222 -1.32645,-1.777999 -1.60866,-4.035774 -2.93511,-8.099771 -1.32644,-4.063997 -2.39888,-8.269105 -0.11289,-0.423333 -0.0564,-0.790221 0.0847,-0.395111 0.254,-0.733778 0.19756,-0.338666 0.508,-0.592666 0.33867,-0.254 0.73378,-0.395111 0.39511,-0.112888 0.79022,-0.05644 0.42333,0.05644 0.762,0.254 0.33867,0.197555 0.59267,0.536222 0.28222,0.310444 0.36689,0.705555 0.81844,3.189108 1.77799,6.29355 0.98778,3.104442 2.11667,6.208884 l 1.27,-4.402663 q 0.73378,-2.511776 1.43933,-4.995329 0.73378,-2.511776 1.46756,-5.051774 0.22577,-0.846666 0.95955,-1.241777 0.73378,-0.395111 1.55222,-0.197555 z"
           id="path1172" />
        <path
           style="color:#000000;-inkscape-font-specification:Mabook;fill:#1a1a1a;stroke:none;-inkscape-stroke:none"
           d="m 145.375,14.304688 c -0.57815,-0.138597 -1.14081,-0.06676 -1.66016,0.21289 -0.52482,0.282596 -0.87716,0.740025 -1.03711,1.339844 -0.48879,1.691959 -0.978,3.37566 -1.46679,5.048828 -0.47026,1.655318 -0.95038,3.319997 -1.43946,4.994141 l -1.13086,3.919921 c -0.6879,-1.90994 -1.34543,-3.818647 -1.95312,-5.728515 -0.63833,-2.065191 -1.22887,-4.157738 -1.77344,-6.279297 v -0.002 c -0.062,-0.287671 -0.19976,-0.547104 -0.40234,-0.771485 -0.17945,-0.237233 -0.39064,-0.431 -0.63281,-0.572265 -0.24441,-0.142573 -0.51837,-0.233208 -0.81836,-0.273438 h -0.002 c -0.28473,-0.0404 -0.57257,-0.02028 -0.85547,0.06055 l -0.004,0.002 -0.006,0.002 c -0.27827,0.09938 -0.53721,0.237385 -0.77539,0.416016 l -0.002,0.002 -0.004,0.002 c -0.22093,0.180761 -0.40175,0.394628 -0.54297,0.636719 l -0.004,0.0039 -0.002,0.0039 c -0.11916,0.238372 -0.20852,0.495989 -0.26758,0.771484 v 0.0059 l -0.002,0.0039 c -0.0415,0.269349 -0.0194,0.555872 0.0606,0.855468 0.71568,2.806087 1.51715,5.565254 2.40234,8.277344 0.88536,2.712584 1.86383,5.415782 2.9375,8.109375 v 0.002 c 0.34693,0.84806 0.80675,1.46963 1.38672,1.84961 h 0.002 v 0.002 c 0.5878,0.372279 1.19231,0.534873 1.79492,0.474609 0.61715,-0.06012 1.18049,-0.323308 1.67188,-0.775391 0.5144,-0.474826 0.86845,-1.115802 1.0625,-1.910156 v -0.002 c 0.13133,-0.506555 0.28053,-1.088144 0.44922,-1.744141 l 0.002,-0.0039 c 0.18787,-0.657725 0.36603,-1.325607 0.53516,-2.001953 v -0.0039 c 0.18775,-0.676048 0.35736,-1.32297 0.50781,-1.94336 l 0.002,-0.0039 c 0.16862,-0.6182 0.30957,-1.124496 0.42188,-1.517578 h -0.002 c 0.52696,-1.787895 1.0446,-3.575382 1.55274,-5.363281 0.50773,-1.786452 1.0262,-3.581455 1.55273,-5.386719 v -0.002 c 0.0815,-0.26578 0.10074,-0.544633 0.0605,-0.828125 -0.04,-0.300287 -0.13071,-0.582301 -0.27148,-0.84375 -0.14107,-0.261978 -0.33413,-0.486433 -0.57422,-0.667969 -4.7e-4,-3.79e-4 -0.001,3.79e-4 -0.002,0 -0.22546,-0.184107 -0.48523,-0.309751 -0.77148,-0.371093 z m -0.0703,0.308593 h 0.002 0.002 c 0.23997,0.05143 0.45053,0.152712 0.63868,0.306641 l 0.002,0.002 0.004,0.002 c 0.20831,0.156231 0.36922,0.345565 0.49024,0.570313 0.12262,0.227735 0.20306,0.472171 0.23828,0.736328 0.0345,0.241966 0.0157,0.471145 -0.0527,0.693359 v 0.002 c -0.52692,1.806565 -1.04464,3.60482 -1.55274,5.392578 -0.50786,1.78691 -1.02411,3.572462 -1.55078,5.359375 v 0.002 c -0.11316,0.396069 -0.25439,0.904111 -0.42383,1.525391 l -0.002,0.002 v 0.0039 c -0.15007,0.619018 -0.31814,1.265606 -0.50586,1.941407 l -0.002,0.002 v 0.002 c -0.16892,0.675658 -0.34751,1.341255 -0.53516,1.998047 v 0.002 0.002 c -0.16931,0.658439 -0.32145,1.242133 -0.45312,1.75 v 0.002 c -0.18234,0.747601 -0.50518,1.327947 -0.96875,1.75586 -0.44887,0.412963 -0.93961,0.640262 -1.48829,0.693359 -0.52567,0.05257 -1.05137,-0.08591 -1.59179,-0.427734 -0.51092,-0.334736 -0.93533,-0.896442 -1.26563,-1.703125 v -0.002 c -1.07094,-2.686864 -2.04859,-5.382394 -2.93164,-8.08789 -0.8832,-2.705977 -1.68237,-5.459678 -2.39648,-8.259766 v -0.002 c -0.0704,-0.264137 -0.0862,-0.5033 -0.0527,-0.722656 9e-5,-5.9e-4 -9e-5,-0.0014 0,-0.002 0.0531,-0.244571 0.13122,-0.469407 0.23438,-0.677735 v -0.002 c 0.12161,-0.208127 0.27716,-0.389707 0.46875,-0.546875 7.3e-4,-6.01e-4 0.001,-0.0014 0.002,-0.002 0.20941,-0.156204 0.43651,-0.277479 0.67969,-0.365234 0.2426,-0.06904 0.48186,-0.08714 0.72265,-0.05273 v 0.002 c 0.2637,0.03516 0.4965,0.111889 0.70313,0.232422 0.20663,0.120531 0.38895,0.28358 0.54687,0.494141 l 0.004,0.0059 0.006,0.0059 c 0.17094,0.188035 0.27746,0.396369 0.32813,0.632812 v 0.0039 l 0.002,0.002 c 0.54625,2.128521 1.13883,4.228672 1.7793,6.300781 v 0.002 c 0.65918,2.071704 1.36582,4.143224 2.11914,6.214844 l 0.16601,0.457031 1.40625,-4.869141 v -0.002 c 0.48911,-1.674276 0.96915,-3.338655 1.43945,-4.99414 0.48924,-1.674669 0.97757,-3.359254 1.4668,-5.052735 l 0.002,-0.002 c 0.14109,-0.529068 0.42731,-0.898359 0.88086,-1.142578 0.45782,-0.246517 0.92776,-0.307107 1.43946,-0.183594 z"
           id="path1174" />
      </g>
      <g
         id="path1131"
         style="fill:#1a1a1a">
        <path
           style="color:#000000;-inkscape-font-specification:Mabook;fill:#1a1a1a;stroke:none;-inkscape-stroke:none"
           d="m 155.2198,21.119315 q 1.52399,3.160886 2.79399,6.406439 1.27,3.245553 2.25778,6.66044 0.22578,0.818443 -0.19756,1.523998 -0.42333,0.705555 -1.24177,0.987777 -0.39511,0.141111 -0.81845,0.08467 -0.39511,-0.08467 -0.73377,-0.282222 -0.33867,-0.225778 -0.59267,-0.536222 -0.254,-0.310444 -0.36689,-0.705555 -0.16933,-0.592666 -0.36689,-1.15711 -0.16933,-0.592666 -0.33866,-1.185332 -0.14111,0.05644 -0.28223,0.141111 -0.14111,0.05644 -0.28222,0.112888 -1.29822,0.366889 -2.59644,0.733778 -1.27,0.338666 -2.54,0.733777 -0.0564,0.366888 -0.14111,0.733777 -0.0564,0.338666 -0.11289,0.705555 -0.0847,0.423333 -0.33866,0.733777 -0.254,0.310444 -0.62089,0.508 -0.36689,0.169333 -0.79022,0.225777 -0.42334,0.05645 -0.79023,-0.02822 -0.84666,-0.225777 -1.21355,-0.959555 -0.33867,-0.761999 -0.19756,-1.552221 0.33867,-2.031998 0.70556,-4.007552 0.39511,-1.975554 0.79022,-3.951108 0.33867,-1.749777 0.67733,-3.471331 0.36689,-1.749776 1.07245,-3.386664 0.22578,-0.564444 0.508,-1.072443 0.31044,-0.536222 0.87489,-0.846666 1.18533,-0.705555 2.48355,-0.169334 0.47978,0.197556 0.81844,0.536222 0.36689,0.338667 0.64911,0.733777 0.28223,0.395111 0.47978,0.846666 0.22578,0.451556 0.45156,0.903111 z m -1.27,8.071549 q 0.16933,-0.05644 0.31044,-0.05644 -0.47978,-1.298221 -1.04422,-2.568221 -0.53622,-1.269999 -1.18533,-2.596442 -0.36689,1.382888 -0.62089,2.793998 -0.254,1.41111 -0.53622,2.850442 -0.0282,0.141111 -0.0565,0.254 0,0.112889 -0.0282,0.225778 0.79022,-0.225778 1.58044,-0.451556 0.79023,-0.225777 1.58045,-0.451555 z"
           id="path1178" />
        <path
           style="color:#000000;-inkscape-font-specification:Mabook;fill:#1a1a1a;stroke:none;-inkscape-stroke:none"
           d="m 151.54102,17.71875 c -0.43788,0.02989 -0.86742,0.168016 -1.2793,0.412109 -0.39931,0.21962 -0.71436,0.522246 -0.93555,0.904297 l -0.002,0.002 v 0.002 c -0.19154,0.344766 -0.36469,0.707629 -0.51758,1.089844 -0.4737,1.099707 -0.83363,2.238706 -1.08008,3.414063 v 0.002 c -0.2258,1.147862 -0.45192,2.30403 -0.67773,3.470703 l -0.78906,3.951172 -0.002,0.002 c -0.24466,1.317396 -0.47924,2.652868 -0.70508,4.007812 -0.0995,0.557095 -0.0284,1.110485 0.20899,1.644532 l 0.002,0.0039 0.002,0.002 c 0.2635,0.526989 0.71422,0.882905 1.31446,1.042969 h 0.002 0.002 c 0.26513,0.06119 0.5492,0.07105 0.84766,0.03125 0.29686,-0.03958 0.57637,-0.118481 0.83594,-0.238281 l 0.004,-0.002 0.004,-0.002 c 0.26166,-0.140895 0.48539,-0.323718 0.66797,-0.546875 0.18619,-0.227607 0.31206,-0.499891 0.37305,-0.804687 v -0.002 -0.0039 c 0.0371,-0.241251 0.0743,-0.47255 0.11132,-0.695312 l 0.002,-0.0078 c 0.0487,-0.211827 0.0863,-0.422815 0.12109,-0.634765 0.81472,-0.252185 1.62871,-0.489793 2.44336,-0.707031 h 0.002 l 2.60547,-0.736329 0.008,-0.0039 c 0.0941,-0.03763 0.18718,-0.0737 0.28125,-0.111328 l 0.0137,-0.0059 0.01,-0.0059 c 0.0341,-0.02047 0.0677,-0.03311 0.10156,-0.05078 l 0.28711,1.007813 0.002,0.0039 c 0.13065,0.373296 0.25121,0.756203 0.36328,1.148437 0.0809,0.283057 0.21357,0.538158 0.39648,0.761719 0.17927,0.219109 0.3885,0.409387 0.62696,0.568359 l 0.004,0.002 0.004,0.002 c 0.24043,0.140253 0.50222,0.240986 0.78125,0.300781 l 0.006,0.002 h 0.006 c 0.30578,0.04077 0.60598,0.01056 0.89258,-0.0918 0.57614,-0.198672 1.02361,-0.555624 1.32421,-1.05664 0.30254,-0.504215 0.37523,-1.06512 0.21485,-1.646485 v -0.002 c -0.65984,-2.281131 -1.41326,-4.505547 -2.26172,-6.673828 -0.84814,-2.167474 -1.7811,-4.307112 -2.79883,-6.417969 l -0.002,-0.002 -0.44727,-0.896484 c -0.136,-0.310877 -0.30151,-0.602587 -0.49609,-0.875 -0.19458,-0.272412 -0.41959,-0.524936 -0.67188,-0.757813 -0.24038,-0.239029 -0.53031,-0.428499 -0.86523,-0.566406 -0.45194,-0.186671 -0.89995,-0.2644 -1.33984,-0.234375 z m 0.0215,0.310547 c 0.38796,-0.02642 0.78373,0.04599 1.19727,0.216797 0.3025,0.124562 0.55737,0.291743 0.76757,0.501953 l 0.002,0.002 0.002,0.002 c 0.2369,0.218679 0.44719,0.454583 0.62891,0.708984 0.18172,0.254402 0.33549,0.527164 0.46289,0.81836 l 0.002,0.0039 0.45312,0.90625 c 1.01382,2.102899 1.94224,4.235402 2.78711,6.394531 0.84488,2.159119 1.59671,4.374438 2.25391,6.646485 0.13992,0.509039 0.0799,0.962511 -0.18164,1.398437 -0.26383,0.439723 -0.64114,0.742299 -1.15625,0.919922 h -0.002 c -0.23835,0.08512 -0.48183,0.109462 -0.73828,0.07617 -0.24477,-0.0531 -0.47079,-0.140079 -0.67969,-0.261719 h -0.002 c -0.20963,-0.140886 -0.39149,-0.307701 -0.54882,-0.5 -0.15576,-0.190363 -0.26825,-0.404679 -0.33789,-0.648437 -0.11279,-0.394765 -0.23566,-0.779875 -0.36719,-1.15625 l -0.002,-0.0098 -0.38477,-1.345703 -0.16211,0.06641 c -0.0952,0.03807 -0.18957,0.08579 -0.2832,0.140625 -0.0902,0.0361 -0.17928,0.07327 -0.26953,0.109375 l -2.59375,0.732422 c -0.84741,0.226036 -1.69564,0.47076 -2.54297,0.734375 l -0.0957,0.0293 -0.0137,0.09766 c -0.037,0.240656 -0.0831,0.481835 -0.13867,0.722656 l -0.002,0.0039 v 0.0059 c -0.0374,0.224638 -0.0758,0.458119 -0.11328,0.701172 -0.0519,0.259648 -0.15227,0.477745 -0.30469,0.664062 -0.15551,0.190061 -0.34587,0.344496 -0.57227,0.466797 -8.4e-4,4.55e-4 -0.001,0.0015 -0.002,0.002 -0.227,0.103614 -0.47235,0.171835 -0.73633,0.207032 -0.26528,0.03537 -0.5069,0.02595 -0.73047,-0.02539 h -0.002 c -0.525,-0.141138 -0.88039,-0.424546 -1.10547,-0.873047 -0.21283,-0.480679 -0.27398,-0.959853 -0.18555,-1.455078 v -0.002 c 0.22552,-1.353085 0.4608,-2.68846 0.70508,-4.003906 v -0.002 l 0.78906,-3.949219 c 0.22563,-1.165729 0.45212,-2.321821 0.67774,-3.46875 v -0.002 c 0.24243,-1.155608 0.59655,-2.274465 1.0625,-3.355469 l 0.002,-0.002 v -0.002 c 0.14782,-0.369549 0.31379,-0.718874 0.49805,-1.050782 l 0.002,-0.002 c 0.19263,-0.331744 0.46008,-0.591325 0.8125,-0.785156 l 0.002,-0.002 0.002,-0.002 c 0.3766,-0.224167 0.75657,-0.348581 1.14453,-0.375 z m 0.42383,5.490234 -0.10938,0.410156 c -0.24569,0.926078 -0.45295,1.861691 -0.62304,2.806641 -0.16919,0.939913 -0.34717,1.88889 -0.53516,2.847656 -0.0184,0.09205 -0.0366,0.173899 -0.0547,0.246094 l -0.006,0.01953 v 0.01953 c 0,0.06206 -0.008,0.12234 -0.0234,0.185546 l -0.0664,0.267579 1.84375,-0.527344 c 0.52424,-0.149782 1.04998,-0.299437 1.57422,-0.449219 l 0.006,-0.002 h 0.002 l 0.006,-0.002 c 0.10036,-0.03345 0.18682,-0.04883 0.25977,-0.04883 h 0.22851 l -0.0801,-0.212891 c -0.32082,-0.868108 -0.66949,-1.726961 -1.04687,-2.576172 v -0.002 c -0.35853,-0.849057 -0.75383,-1.715357 -1.1875,-2.601562 z m 0.0957,0.945313 c 0.35026,0.731658 0.69059,1.457035 0.98828,2.162109 v 0.002 0.002 c 0.34947,0.786316 0.67011,1.582199 0.97071,2.384766 -0.0454,0.0099 -0.0879,0.008 -0.13477,0.02344 -0.002,6.9e-4 -0.004,0.0013 -0.006,0.002 -0.52483,0.149953 -1.04938,0.299266 -1.57422,0.449218 L 150.97852,29.875 c 0.0172,-0.07077 0.0339,-0.145907 0.0508,-0.230469 0.1883,-0.96034 0.36762,-1.91195 0.53711,-2.853515 0.14098,-0.78325 0.32224,-1.556047 0.51562,-2.326172 z"
           id="path1180" />
      </g>
      <g
         id="path1133"
         style="fill:#1a1a1a">
        <path
           style="color:#000000;-inkscape-font-specification:Mabook;fill:#1a1a1a;stroke:none;-inkscape-stroke:none"
           d="m 164.90004,36.048859 q -1.43934,-0.846666 -2.286,-2.116665 -0.81845,-1.298221 -1.24178,-2.793998 -0.39511,-1.523999 -0.47978,-3.160886 -0.0847,-1.66511 -0.0282,-3.245554 0.0565,-1.072443 0.11289,-2.144887 0.0564,-1.072443 0.19755,-2.144887 0.0847,-0.874888 0.59267,-1.439332 0.53622,-0.564444 1.43933,-0.592666 0.36689,-0.02822 0.73378,0.141111 0.39511,0.169333 0.67733,0.451555 0.31045,0.282222 0.47978,0.677333 0.16933,0.366888 0.14111,0.761999 -0.0847,0.761999 -0.19755,2.003776 -0.0847,1.213555 -0.16934,2.539998 -0.0564,1.326444 -0.0282,2.568221 0.0564,1.241776 0.28222,2.031998 0.11289,0.564444 0.36689,1.128888 0.254,0.564444 0.64911,1.044221 0.39511,0.479778 0.93133,0.790222 0.53623,0.282222 1.21356,0.282222 0.79022,0 1.32644,-0.338666 0.56445,-0.338667 0.93134,-0.874889 0.36688,-0.564444 0.56444,-1.298221 0.22578,-0.733777 0.31044,-1.552221 0.19756,-1.975554 -0.0564,-4.007552 -0.254,-2.031999 -0.81844,-4.092219 -0.19756,-0.818444 0.19755,-1.523999 0.42333,-0.705555 1.24178,-0.987777 0.79022,-0.254 1.524,0.197555 0.762,0.451555 0.95955,1.241777 0.33867,1.241777 0.53622,2.483554 0.22578,1.241776 0.36689,2.511775 0.11289,1.016 0.16933,2.060221 0.0847,1.015999 0,2.003776 -0.0564,0.931333 -0.22577,1.862666 -0.16934,0.90311 -0.508,1.777998 -0.33867,0.874888 -0.84667,1.636888 -0.508,0.761999 -1.24178,1.354665 -0.81844,0.677333 -1.80622,1.100666 -0.95955,0.423333 -2.00377,0.536222 -1.016,0.08467 -2.06022,-0.112889 -1.016,-0.197555 -1.94733,-0.761999 z"
           id="path1184" />
        <path
           style="color:#000000;-inkscape-font-specification:Mabook;fill:#1a1a1a;stroke:none;-inkscape-stroke:none"
           d="m 171.93164,18.005859 c -0.57615,0.198672 -1.02556,0.555624 -1.32617,1.056641 v 0.002 l -0.002,0.002 c -0.28168,0.502992 -0.35269,1.059516 -0.2129,1.638672 v 0.002 l 0.002,0.002 c 0.37438,1.366515 0.64414,2.723445 0.8125,4.070313 0.16789,1.343373 0.18714,2.667666 0.0566,3.972656 -0.0555,0.536107 -0.1574,1.04281 -0.30469,1.521484 v 0.002 l -0.002,0.0039 c -0.12796,0.475252 -0.3084,0.891071 -0.54297,1.251953 -0.23173,0.337987 -0.52403,0.612076 -0.88086,0.826172 h -0.002 v 0.002 c -0.32776,0.207006 -0.73802,0.314453 -1.24219,0.314453 -0.42884,0 -0.80592,-0.09085 -1.13867,-0.265625 h -0.002 c -0.33884,-0.197124 -0.63262,-0.446194 -0.88281,-0.75 -0.25461,-0.309171 -0.46334,-0.644238 -0.62695,-1.007812 -0.16483,-0.366279 -0.2827,-0.731861 -0.35547,-1.095704 l -0.002,-0.0059 -0.002,-0.0059 c -0.14519,-0.508099 -0.23801,-1.174555 -0.27539,-1.992188 v -0.0039 c -0.0186,-0.821742 -0.01,-1.67248 0.0274,-2.550781 v -0.0039 c 0.0562,-0.881184 0.11365,-1.724919 0.16992,-2.53125 v -0.0039 c 0.075,-0.824985 0.1411,-1.49274 0.19726,-1.998047 v -0.002 -0.0039 c 0.0206,-0.288704 -0.0315,-0.571132 -0.15429,-0.837891 -0.12069,-0.28064 -0.29426,-0.524485 -0.51563,-0.726562 -0.20248,-0.201678 -0.44389,-0.362953 -0.72265,-0.482422 -0.26288,-0.120656 -0.5331,-0.174011 -0.80274,-0.154297 h -0.002 c -0.63316,0.02021 -1.16012,0.233511 -1.54688,0.640625 l -0.002,0.002 v 0.002 c -0.36295,0.403307 -0.57373,0.919044 -0.63281,1.529297 -0.0944,0.71774 -0.16147,1.434517 -0.19922,2.152344 -0.0376,0.714957 -0.0756,1.429575 -0.11328,2.144531 v 0.002 0.002 c -0.0378,1.058441 -0.0274,2.145367 0.0293,3.259766 0.057,1.101425 0.2182,2.164726 0.48438,3.191406 v 0.002 l 0.002,0.002 c 0.28624,1.011376 0.70607,1.957655 1.25977,2.835937 l 0.002,0.002 c 0.57792,0.86688 1.35942,1.589188 2.33594,2.164063 8.5e-4,4.98e-4 0.001,0.0015 0.002,0.002 l 0.0371,0.02148 h 0.0215 c 0.61834,0.366361 1.26237,0.628492 1.9375,0.759766 h 0.002 c 0.70943,0.13422 1.40958,0.172901 2.10156,0.115234 h 0.002 0.002 c 0.71204,-0.07698 1.39641,-0.260136 2.05078,-0.548828 0.67125,-0.287677 1.28508,-0.662651 1.8418,-1.123047 l 0.002,-0.002 c 0.50015,-0.40432 0.92626,-0.867909 1.27344,-1.388672 0.34518,-0.517768 0.63151,-1.074277 0.86132,-1.667969 0.2292,-0.592086 0.40287,-1.192915 0.51758,-1.804687 v -0.002 c 0.11379,-0.625708 0.1885,-1.250976 0.22657,-1.876953 v -0.0039 c 0.0568,-0.665072 0.0567,-1.33823 0,-2.021484 v -0.0039 c -0.0378,-0.697722 -0.0945,-1.387307 -0.16993,-2.066406 -0.0943,-0.848962 -0.21632,-1.687323 -0.36718,-2.517579 v -0.0039 c -0.13237,-0.831145 -0.31263,-1.663384 -0.53907,-2.49414 -0.14137,-0.565524 -0.495,-1.019321 -1.03125,-1.337891 -0.52161,-0.320353 -1.08848,-0.39476 -1.65429,-0.212891 h -0.002 z m 0.10156,0.300782 c 0.48716,-0.156586 0.93632,-0.09913 1.39258,0.18164 l 0.002,0.002 c 0.47829,0.283427 0.76493,0.655391 0.88672,1.142578 v 0.002 0.002 c 0.22431,0.822459 0.40243,1.644729 0.53321,2.466797 v 0.002 0.002 c 0.14985,0.824211 0.27156,1.656921 0.36523,2.5 0.0749,0.674291 0.1305,1.359508 0.16797,2.052734 v 0.002 l 0.002,0.002 c 0.0557,0.668736 0.0557,1.327135 0,1.976563 l -0.002,0.002 v 0.002 c -0.0372,0.614515 -0.11085,1.228966 -0.22266,1.84375 -0.11107,0.592374 -0.27764,1.17557 -0.5,1.75 -0.22174,0.572825 -0.49792,1.107238 -0.83008,1.605469 -0.32964,0.494473 -0.73367,0.934831 -1.21093,1.320312 -0.534,0.441928 -1.12263,0.801717 -1.76758,1.078125 h -0.002 c -0.62387,0.275238 -1.27425,0.449659 -1.95313,0.523438 -0.66269,0.05523 -1.33472,0.01786 -2.01758,-0.111328 -0.65847,-0.128037 -1.28848,-0.372932 -1.89453,-0.740235 l -0.002,-0.002 h -0.002 c -0.94079,-0.553635 -1.68222,-1.243048 -2.23243,-2.068359 -0.53608,-0.851123 -0.94291,-1.765187 -1.2207,-2.746094 v -0.002 c -0.26035,-1.004749 -0.41872,-2.046523 -0.47461,-3.126953 -0.0563,-1.105745 -0.0648,-2.181653 -0.0273,-3.230469 0.0376,-0.714317 0.0738,-1.42826 0.11133,-2.142578 0.0374,-0.710803 0.1037,-1.421919 0.19726,-2.132812 v -0.002 -0.0039 c 0.0538,-0.556263 0.2384,-0.998372 0.55274,-1.347656 0.32757,-0.343843 0.7571,-0.523232 1.32617,-0.541016 h 0.004 0.004 c 0.2164,-0.01664 0.43295,0.02389 0.65625,0.126953 h 0.002 l 0.002,0.002 c 0.24666,0.105712 0.45375,0.244764 0.62695,0.417968 l 0.002,0.002 0.004,0.002 c 0.19034,0.173031 0.335,0.379316 0.43945,0.623046 l 0.002,0.002 v 0.002 c 0.10242,0.221894 0.14392,0.448087 0.12696,0.685547 l 0.002,-0.0078 c -0.0567,0.509713 -0.12393,1.179313 -0.19922,2.007813 v 0.002 0.002 c -0.0565,0.809379 -0.11347,1.656434 -0.16992,2.541015 v 0.002 c -0.0377,0.887512 -0.0462,1.746596 -0.0273,2.578125 v 0.002 0.002 c 0.0377,0.831152 0.13111,1.513564 0.28515,2.05664 1.2e-4,5.92e-4 -1.2e-4,0.0014 0,0.002 0.0778,0.388155 0.20338,0.774431 0.37696,1.160156 0.17505,0.389017 0.39967,0.749548 0.67187,1.080078 0.27511,0.334063 0.6011,0.609928 0.97461,0.826172 l 0.002,0.002 0.004,0.002 c 0.38183,0.200958 0.81354,0.300781 1.28711,0.300781 0.54946,0 1.02295,-0.118733 1.41016,-0.363281 0.39387,-0.236777 0.72184,-0.544783 0.97851,-0.919922 v -0.002 h 0.002 c 0.25354,-0.390065 0.44665,-0.837343 0.58204,-1.337891 v -0.002 c 0.15345,-0.499167 0.25905,-1.027538 0.3164,-1.582031 0.13291,-1.32908 0.11408,-2.677014 -0.0566,-4.042969 -0.17006,-1.360471 -0.44297,-2.730974 -0.82031,-4.109375 -0.12345,-0.511404 -0.0627,-0.970992 0.18164,-1.408203 0.26349,-0.437939 0.639,-0.738649 1.15234,-0.916015 z"
           id="path1186" />
      </g>
      <g
         id="path1135"
         style="fill:#1a1a1a">
        <path
           style="color:#000000;-inkscape-font-specification:Mabook;fill:#1a1a1a;stroke:none;-inkscape-stroke:none"
           d="m 183.66779,34.101527 q 0.84666,0.08467 1.27,0.677333 0.42333,0.564444 0.39511,1.241777 0,0.677332 -0.47978,1.298221 -0.45156,0.592666 -1.38289,0.733777 -0.53622,0.08467 -1.10066,0.08467 -0.56445,0 -1.04423,0 -1.29822,0 -2.51177,-0.564444 -0.59267,-0.282222 -0.98778,-0.733778 -0.39511,-0.451555 -0.67733,-0.987777 -0.254,-0.564444 -0.39511,-1.15711 -0.14111,-0.620888 -0.16934,-1.213554 -0.19755,-3.245553 0.22578,-6.575773 0.42334,-3.33022 1.32645,-6.660439 0.22577,-0.818444 0.95955,-1.213555 0.73378,-0.423333 1.55222,-0.225778 0.39511,0.08467 0.70556,0.338667 0.33866,0.254 0.508,0.620888 0.19755,0.338667 0.254,0.762 0.0564,0.39511 -0.0564,0.790221 -0.31044,1.467555 -0.59266,2.737554 -0.254,1.269999 -0.45156,2.539998 -0.19756,1.241777 -0.33867,2.56822 -0.11289,1.326443 -0.14111,2.935109 -0.0282,0.818444 0.11289,1.382888 0.14111,0.564444 0.62089,0.564444 0.47978,0 1.18533,0 0.70556,0 1.21356,0.05644 z"
           id="path1190" />
        <path
           style="color:#000000;-inkscape-font-specification:Mabook;fill:#1a1a1a;stroke:none;-inkscape-stroke:none"
           d="m 180.68164,18.650391 c -0.5785,-0.138639 -1.14376,-0.05379 -1.66211,0.24414 -0.52123,0.281972 -0.87509,0.728322 -1.03516,1.308594 h -0.002 c -0.60393,2.226987 -1.04691,4.454066 -1.33008,6.681641 -0.28342,2.229594 -0.35888,4.431634 -0.22656,6.605468 0.0194,0.404421 0.078,0.816609 0.17383,1.238282 v 0.002 c 0.0964,0.404926 0.23095,0.800336 0.4043,1.185547 l 0.002,0.0039 0.002,0.0059 c 0.19381,0.368232 0.42766,0.707217 0.69922,1.017578 0.27849,0.318279 0.62667,0.577061 1.03906,0.773438 0.82863,0.38541 1.69163,0.578125 2.58008,0.578125 h 1.04297 c 0.38422,0 0.75906,-0.02815 1.125,-0.08594 0.64963,-0.09843 1.15518,-0.362851 1.48438,-0.794922 0.33552,-0.434802 0.51112,-0.903138 0.51171,-1.390625 0.0191,-0.483153 -0.12512,-0.93608 -0.42382,-1.335937 -0.30868,-0.432141 -0.78401,-0.681818 -1.38086,-0.742188 -3.6e-4,-3.5e-5 3.5e-4,-0.0019 0,-0.002 -5.5e-4,-6.1e-5 -0.001,6.1e-5 -0.002,0 -0.005,-6.09e-4 -0.014,6e-4 -0.0195,0 l -0.0117,0.316407 c 0.53061,0.05306 0.901,0.253982 1.15625,0.611328 l 0.002,0.002 c 0.26294,0.350597 0.38064,0.723834 0.36328,1.140625 v 0.0039 0.0039 c 0,0.414131 -0.14251,0.809312 -0.44531,1.201172 h -0.002 c -0.27288,0.358151 -0.68715,0.58411 -1.27929,0.673828 h -0.002 c -0.34901,0.05511 -0.7078,0.08203 -1.07617,0.08203 h -1.04297 c -0.84251,0 -1.65587,-0.181648 -2.44531,-0.548829 -0.37783,-0.179918 -0.68723,-0.411517 -0.93555,-0.695312 -0.25465,-0.291029 -0.47206,-0.609289 -0.65429,-0.955078 -4.3e-4,-8.11e-4 -0.002,-0.0011 -0.002,-0.002 -0.16322,-0.364298 -0.28993,-0.73724 -0.38086,-1.119141 -0.0922,-0.405524 -0.14766,-0.800346 -0.16601,-1.185547 v -0.002 c -0.13109,-2.153565 -0.0564,-4.334227 0.22461,-6.544922 0.2812,-2.212088 0.72231,-4.425997 1.32226,-6.638672 v -0.002 c 0.14071,-0.508632 0.42837,-0.870532 0.88281,-1.115234 h 0.002 l 0.002,-0.002 c 0.45785,-0.264142 0.92553,-0.332094 1.43555,-0.208985 h 0.002 l 0.002,0.002 c 0.23998,0.05142 0.45053,0.150759 0.63868,0.304688 l 0.002,0.0039 0.002,0.002 c 0.20662,0.154963 0.35711,0.339822 0.45899,0.560547 l 0.004,0.0059 0.004,0.0059 c 0.12053,0.206626 0.19921,0.439426 0.23437,0.703125 v 0.002 c 0.0345,0.241456 0.0167,0.481319 -0.0527,0.724609 l -0.002,0.0059 v 0.0039 c -0.20687,0.977912 -0.40379,1.89027 -0.5918,2.736328 l -0.002,0.002 v 0.002 c -0.16978,0.848879 -0.32107,1.697945 -0.45313,2.546875 h 0.002 c -0.13216,0.830716 -0.24549,1.689314 -0.33984,2.576172 l -0.002,0.002 c -0.0755,0.887402 -0.12171,1.869644 -0.14063,2.94336 -2e-5,7.55e-4 3e-5,0.0012 0,0.002 -1e-5,7.11e-4 2e-5,0.0012 0,0.002 -0.0188,0.554022 0.0184,1.028714 0.11719,1.423828 0.0522,0.208651 0.13988,0.380541 0.27344,0.501953 0.13355,0.121412 0.31095,0.181641 0.50195,0.181641 h 1.18555 c 0.46614,0 0.86465,0.0199 1.19531,0.05664 l 0.0137,-0.316407 c -0.34279,-0.03717 -0.74265,-0.05664 -1.20898,-0.05664 h -1.18555 c -0.12885,0 -0.21565,-0.03287 -0.28906,-0.09961 -0.0734,-0.06674 -0.13582,-0.178057 -0.17774,-0.345703 -0.0891,-0.3564 -0.12781,-0.802606 -0.10937,-1.33789 v -0.002 -0.002 c 0.0187,-1.068075 0.0659,-2.04083 0.14062,-2.919922 v -0.0039 c 0.0937,-0.880324 0.20684,-1.732892 0.33789,-2.55664 0.13126,-0.843769 0.28049,-1.68743 0.44922,-2.53125 v -0.002 c 0.18817,-0.846784 0.38684,-1.758168 0.59375,-2.736328 l -0.004,0.01172 c 0.0808,-0.282881 0.10286,-0.57075 0.0625,-0.855469 -0.0399,-0.299241 -0.1318,-0.572399 -0.27344,-0.816406 -0.12315,-0.262937 -0.3069,-0.486897 -0.54688,-0.667969 -4.6e-4,-3.79e-4 -0.001,3.8e-4 -0.002,0 -0.22547,-0.184107 -0.48328,-0.309751 -0.76953,-0.371093 z"
           id="path1192" />
      </g>
      <g
         id="path1137"
         style="fill:#1a1a1a">
        <path
           style="color:#000000;-inkscape-font-specification:Mabook;fill:#1a1a1a;stroke:none;-inkscape-stroke:none"
           d="m 186.12314,21.994203 q -0.84667,-0.05644 -1.41111,-0.592666 -0.56445,-0.564444 -0.62089,-1.439332 0,-0.395111 0.16933,-0.762 0.16934,-0.366888 0.45156,-0.64911 0.28222,-0.310445 0.64911,-0.451556 0.36689,-0.169333 0.762,-0.141111 4.54377,0.254 9.05933,-0.08467 0.42333,-0.02822 0.79022,0.141111 0.36689,0.169333 0.62089,0.479777 0.28222,0.282222 0.45155,0.677333 0.16933,0.366889 0.16933,0.733777 0.0282,0.423333 -0.14111,0.790222 -0.16933,0.366888 -0.45155,0.64911 -0.28222,0.254 -0.67734,0.423333 -0.36688,0.141111 -0.76199,0.169334 -1.58045,0.141111 -3.18911,0.169333 -0.53623,6.745106 -0.84667,13.574878 -0.0564,0.903111 -0.62089,1.467555 -0.56444,0.536221 -1.41111,0.592666 -0.39511,0.02822 -0.79022,-0.141111 -0.36689,-0.169333 -0.64911,-0.451555 -0.28222,-0.282222 -0.45156,-0.649111 -0.16933,-0.395111 -0.14111,-0.818444 0.254,-6.773328 0.84667,-13.6031 -0.87489,0 -1.80622,-0.08467 z"
           id="path1196" />
        <path
           style="color:#000000;-inkscape-font-specification:Mabook;fill:#1a1a1a;stroke:none;-inkscape-stroke:none"
           d="m 195.16992,17.714844 c -3.00347,0.225262 -6.01477,0.254888 -9.03711,0.08594 -0.2866,-0.02015 -0.56703,0.03114 -0.83203,0.152344 -0.26659,0.103278 -0.50299,0.26989 -0.70508,0.492187 -0.19889,0.200064 -0.35906,0.428705 -0.47851,0.6875 -0.12196,0.264249 -0.1836,0.544029 -0.1836,0.830079 v 0.0039 0.0059 c 0.0397,0.614948 0.26263,1.137635 0.66602,1.541016 l 0.002,0.002 h 0.002 c 0.40297,0.382827 0.91441,0.597032 1.50976,0.636719 0.56623,0.05137 1.11253,0.07337 1.64844,0.07813 -0.38768,4.498421 -0.67051,8.979616 -0.83789,13.441406 -5e-5,6.53e-4 4e-5,0.0013 0,0.002 -3e-5,6.46e-4 2e-5,0.0013 0,0.002 -0.0197,0.305118 0.0326,0.602758 0.15429,0.886719 v 0.002 l 0.002,0.002 c 0.12045,0.260972 0.2812,0.49409 0.48242,0.695313 0.20122,0.201223 0.43434,0.361973 0.69531,0.482422 l 0.002,0.002 h 0.002 c 0.28392,0.121678 0.57561,0.174982 0.86523,0.154297 0.59452,-0.04003 1.10529,-0.254316 1.50782,-0.636719 h 0.002 l 0.002,-0.002 c 0.40435,-0.404315 0.6265,-0.937458 0.66602,-1.570313 v -0.002 c 0.20476,-4.504913 0.48572,-8.982056 0.83789,-13.431641 1.02479,-0.02129 2.04299,-0.07222 3.05078,-0.162109 0.27865,-0.0199 0.54952,-0.08004 0.80859,-0.179687 h 0.002 l 0.004,-0.002 c 0.27723,-0.118809 0.51824,-0.26895 0.72071,-0.451171 l 0.002,-0.002 0.004,-0.0039 c 0.20123,-0.201223 0.36198,-0.43434 0.48243,-0.695312 0.12313,-0.266827 0.17356,-0.557404 0.15429,-0.861328 -9.2e-4,-0.265565 -0.0605,-0.53144 -0.17968,-0.791016 l -0.002,-0.002 c -0.11898,-0.276805 -0.2803,-0.517277 -0.48047,-0.71875 -0.18295,-0.221305 -0.40752,-0.396474 -0.66992,-0.517578 -0.26869,-0.124011 -0.56094,-0.176665 -0.86719,-0.15625 z m 0.0234,0.316406 c 0.25819,-0.01721 0.4924,0.02519 0.71289,0.126953 0.22377,0.103277 0.40986,0.248554 0.56445,0.4375 l 0.006,0.0059 0.006,0.0059 c 0.1732,0.173204 0.31226,0.380291 0.41797,0.626953 v 0.002 0.002 c 0.10446,0.226341 0.15625,0.447761 0.15625,0.667969 v 0.0039 0.0059 c 0.0172,0.258201 -0.0252,0.492396 -0.12695,0.71289 -0.10471,0.22687 -0.24435,0.425273 -0.41797,0.59961 -0.17222,0.154342 -0.37876,0.286567 -0.625,0.392578 -6e-4,2.3e-4 -10e-4,-2.3e-4 -0.002,0 -9e-4,3.86e-4 -0.001,0.0016 -0.002,0.002 -0.22886,0.08758 -0.46421,0.138626 -0.71094,0.15625 h -0.002 -0.002 c -1.04982,0.09373 -2.10902,0.151172 -3.17774,0.169922 l -0.14257,0.002 -0.0117,0.142578 c -0.35763,4.498537 -0.64062,9.02513 -0.84766,13.580078 -0.036,0.569307 -0.22553,1.013741 -0.57226,1.361328 -0.34962,0.332137 -0.77896,0.513259 -1.3125,0.548828 -0.23657,0.0169 -0.47263,-0.02541 -0.71485,-0.128906 h -0.002 c -0.22654,-0.105106 -0.42557,-0.243926 -0.59961,-0.417969 -0.17404,-0.174043 -0.31286,-0.373065 -0.41797,-0.599609 v -0.002 c -0.10298,-0.241044 -0.14606,-0.484881 -0.12891,-0.742188 v -0.0039 -0.002 c 0.16924,-4.512928 0.45277,-9.045079 0.84766,-13.595703 l 0.0137,-0.171875 h -0.17187 c -0.57815,0 -1.17654,-0.02794 -1.79297,-0.08398 h -0.002 -0.002 c -0.5319,-0.03546 -0.95956,-0.216671 -1.30859,-0.546875 -0.34817,-0.348164 -0.53587,-0.784753 -0.57227,-1.333984 0.001,-0.237801 0.0497,-0.465106 0.15235,-0.6875 0.10533,-0.228213 0.24485,-0.428443 0.41992,-0.603516 l 0.002,-0.0039 0.004,-0.002 c 0.17319,-0.190512 0.36693,-0.325174 0.58789,-0.410156 l 0.006,-0.002 0.004,-0.002 c 0.2219,-0.102413 0.44614,-0.143915 0.6836,-0.126954 h 0.002 0.002 c 3.03602,0.169716 6.06086,0.14036 9.07813,-0.08594 z"
           id="path1198" />
      </g>
    </g>
  </g>
</svg>
